<svg xmlns="http://www.w3.org/2000/svg" width="464.797" height="269.982" viewBox="0 0 464.797 269.982">
  <g id="Group_138" data-name="Group 138" transform="translate(-1234.62 -7263.848)">
    <g id="Group_74" data-name="Group 74" transform="translate(1699.417 7533.83) rotate(180)">
      <g id="Group_72" data-name="Group 72" transform="translate(304.931 164.086) rotate(180)" style="mix-blend-mode: multiply;isolation: isolate">
        <path id="Path_540" data-name="Path 540" d="M53.669,0H259V.089C224.26,1.6,209.856,28.823,209.856,48.04S224.26,96.017,259,97.524v.089H0V39.541C0,17.7,24.028,0,53.669,0Z" transform="translate(0 0)" fill="#004769"/>
        <path id="Path_541" data-name="Path 541" d="M45.932,0a45.934,45.934,0,0,1,0,91.867c-.926,0-1.841-.025-2.752-.082a45.935,45.935,0,0,1,0-91.7C44.091.025,45.006,0,45.932,0Z" transform="translate(213.067 2.873)" fill="#004769"/>
      </g>
      <circle id="Orange_MD" data-name="Orange MD" cx="54.572" cy="54.572" r="54.572" transform="translate(411.532 98.919) rotate(155)" fill="#f78d1e"/>
      <circle id="Yellow_" data-name="Yellow " cx="74.014" cy="74.014" r="74.014" transform="translate(439.214 207.423) rotate(155)" fill="#f8d213"/>
      <circle id="Blue_LU" data-name="Blue LU" cx="42.821" cy="42.821" r="42.821" transform="translate(464.797 135.991) rotate(155)" fill="#5ab6c9" style="mix-blend-mode: multiply;isolation: isolate"/>
      <g id="Group_71" data-name="Group 71" transform="translate(426.104 218.89) rotate(-171)" style="mix-blend-mode: multiply;isolation: isolate">
        <g id="Group_23" data-name="Group 23" transform="translate(7.677 7.106)">
          <path id="Path_329" data-name="Path 329" d="M7.855,2.91,0,3.933C.053,2.947.083,1.969.083,1L2.837.63,7.471.013A1.447,1.447,0,0,1,9.1,1.262a.027.027,0,0,1,.007.023A1.446,1.446,0,0,1,7.855,2.91Z" transform="translate(133.412 73.054)" fill="#f78d1e"/>
          <path id="Path_330" data-name="Path 330" d="M19.554,1.369V1.4a1.425,1.425,0,0,1-1.407,1.452L0,2.919C.188,1.963.346,1,.474.037L18.14,0A1.414,1.414,0,0,1,19.554,1.369Z" transform="translate(132.502 81.501)" fill="#f78d1e"/>
          <path id="Path_331" data-name="Path 331" d="M24.159,4.078a1.455,1.455,0,0,1-1.618,1.5L0,2.844C.308,1.9.594.955.85,0L22.887,2.678a1.43,1.43,0,0,1,1.264,1.369A.045.045,0,0,1,24.159,4.078Z" transform="translate(130.658 88.701)" fill="#f78d1e"/>
          <path id="Path_332" data-name="Path 332" d="M25.159,7.659c0,.007-.008.015-.008.023a1.418,1.418,0,0,1-1.678.865L0,2.679C.421,1.8.82.9,1.189,0L24.174,5.748A1.438,1.438,0,0,1,25.159,7.659Z" transform="translate(127.987 95.525)" fill="#f78d1e"/>
          <path id="Path_333" data-name="Path 333" d="M23.595,10.5c0,.007-.008.015-.015.022a1.426,1.426,0,0,1-1.678.5L0,2.513C.519,1.685,1.016.85,1.49,0L22.955,8.329A1.434,1.434,0,0,1,23.595,10.5Z" transform="translate(124.602 101.86)" fill="#f78d1e"/>
          <path id="Path_334" data-name="Path 334" d="M20.487,11.865c-.008.008-.008.015-.015.023a1.427,1.427,0,0,1-1.858.466L0,2.34C.617,1.572,1.211.79,1.783,0L19.976,9.826A1.42,1.42,0,0,1,20.487,11.865Z" transform="translate(120.622 107.624)" fill="#f78d1e"/>
          <path id="Path_335" data-name="Path 335" d="M11.963,8.908c-.008.008-.015.023-.023.03a1.692,1.692,0,0,1-2.362.406L0,2.49Q1.23,1.272,2.385,0l9.179,6.568A1.691,1.691,0,0,1,11.963,8.908Z" transform="translate(115.746 112.883)" fill="#f78d1e"/>
          <path id="Path_336" data-name="Path 336" d="M16.108,2.5,1.941,15.505C1.46,14.949.978,14.4.474,13.865.323,13.7.165,13.542,0,13.376l14.16-13a1.422,1.422,0,0,1,2,.075.1.1,0,0,0,.023.03A1.42,1.42,0,0,1,16.108,2.5Z" transform="translate(119.975 26.383)" fill="#f78d1e"/>
          <path id="Path_337" data-name="Path 337" d="M16.77,2.544,1.551,13.454c-.482-.82-1-1.625-1.551-2.415L15.138.257a1.4,1.4,0,0,1,1.979.384c0,.007.008.015.015.023A1.39,1.39,0,0,1,16.77,2.544Z" transform="translate(124.948 34.807)" fill="#f78d1e"/>
          <path id="Path_338" data-name="Path 338" d="M14.265,2.607,1.144,9.777C.79,8.882.406,7.994,0,7.122L12.941.162a1.383,1.383,0,0,1,1.836.512c.008.008.008.015.015.023A1.377,1.377,0,0,1,14.265,2.607Z" transform="translate(128.845 45.526)" fill="#f78d1e"/>
          <path id="Path_339" data-name="Path 339" d="M5.485,2.891.707,4.629C.5,3.681.263,2.741,0,1.808L4.439.1A1.479,1.479,0,0,1,6.4,1.093a.063.063,0,0,1,.007.03A1.481,1.481,0,0,1,5.485,2.891Z" transform="translate(131.569 58.13)" fill="#f78d1e"/>
          <path id="Path_340" data-name="Path 340" d="M8.758,9.969l-.015.015a1.465,1.465,0,0,1-2.017-.233L0,1.61C.8,1.091,1.6.557,2.393,0L5.62,3.89,8.983,7.87A1.455,1.455,0,0,1,8.758,9.969Z" transform="translate(105.627 121.859)" fill="#f78d1e"/>
          <path id="Path_341" data-name="Path 341" d="M13.174,19.073c-.008.008-.023.015-.03.023a1.46,1.46,0,0,1-2.129-.376L0,1.354C.858.925,1.708.474,2.543,0l10.97,17.124A1.457,1.457,0,0,1,13.174,19.073Z" transform="translate(100.119 125.244)" fill="#f78d1e"/>
          <path id="Path_342" data-name="Path 342" d="M12.881,24.836c-.007,0-.015.007-.023.007a1.416,1.416,0,0,1-1.941-.647L0,1.083Q1.355.575,2.686,0l10.82,22.978A1.428,1.428,0,0,1,12.881,24.836Z" transform="translate(94.386 128.021)" fill="#f78d1e"/>
          <path id="Path_343" data-name="Path 343" d="M10.376,27.838c-.016.007-.031.007-.046.015a1.424,1.424,0,0,1-1.768-.918L0,.782C.933.549,1.851.286,2.769,0l8.509,26.04A1.415,1.415,0,0,1,10.376,27.838Z" transform="translate(88.473 130.18)" fill="#f78d1e"/>
          <path id="Path_344" data-name="Path 344" d="M6.764,27.59h-.03a1.406,1.406,0,0,1-1.64-1.106L0,.482C.956.346,1.9.188,2.852,0L7.877,25.942A1.415,1.415,0,0,1,6.764,27.59Z" transform="translate(82.416 131.685)" fill="#f78d1e"/>
          <path id="Path_345" data-name="Path 345" d="M4.341,22.556a1.407,1.407,0,0,1-1.354,1.5H2.964A1.419,1.419,0,0,1,1.5,22.744L0,.166C.956.135,1.911.083,2.859,0Z" transform="translate(76.314 132.535)" fill="#f78d1e"/>
          <path id="Path_346" data-name="Path 346" d="M3.726.158,2.793,15.913A1.392,1.392,0,0,1,1.213,17.2H1.191A1.394,1.394,0,0,1,0,15.747L.882,0C1.823.083,2.771.128,3.726.158Z" transform="translate(69.307 132.565)" fill="#f78d1e"/>
          <path id="Path_347" data-name="Path 347" d="M3.2.4,2.256,5.507a1.119,1.119,0,0,1-1.294.9C.955,6.41.948,6.4.94,6.4A1.119,1.119,0,0,1,.014,5.124C.255,3.626.669,1,.789,0,1.587.15,2.384.286,3.2.4Z" transform="translate(63.682 131.805)" fill="#f78d1e"/>
          <path id="Path_348" data-name="Path 348" d="M3.392.8c-.2.482-.564,1.415-.857,2.159a1.3,1.3,0,0,1-1.6.752C.924,3.709.909,3.7.9,3.7A1.3,1.3,0,0,1,.059,2.076L.721,0C1.6.293,2.489.557,3.392.8Z" transform="translate(57.378 130.157)" fill="#f78d1e"/>
          <path id="Path_349" data-name="Path 349" d="M7.164,1.159,2.649,10.752a1.37,1.37,0,0,1-1.761.692c-.015-.008-.023-.015-.038-.015A1.377,1.377,0,0,1,.129,9.578L4.546,0C5.4.421,6.276.805,7.164,1.159Z" transform="translate(47.843 127.855)" fill="#f78d1e"/>
          <path id="Path_350" data-name="Path 350" d="M11.351,1.49,2.661,15.469A1.42,1.42,0,0,1,.7,15.935c-.007,0-.015-.008-.023-.008a1.439,1.439,0,0,1-.466-1.979L8.89,0Q10.1.79,11.351,1.49Z" transform="translate(38.088 124.838)" fill="#f78d1e"/>
          <path id="Path_351" data-name="Path 351" d="M15.081,1.8,2.531,17.177a1.411,1.411,0,0,1-2.039.15.1.1,0,0,1-.03-.023,1.415,1.415,0,0,1-.143-1.941L12.823,0C13.561.624,14.313,1.226,15.081,1.8Z" transform="translate(29.197 121.151)" fill="#f78d1e"/>
          <path id="Path_352" data-name="Path 352" d="M17.283,2.069,2.431,16.289a1.417,1.417,0,0,1-1.986-.022c-.007-.008-.023-.015-.03-.023a1.424,1.424,0,0,1,.023-2.031L15.282,0c.143.158.286.308.429.466C16.222,1.016,16.75,1.55,17.283,2.069Z" transform="translate(22.285 116.848)" fill="#f78d1e"/>
          <path id="Path_353" data-name="Path 353" d="M18.206,2.317,2.263,14.167a1.413,1.413,0,0,1-2.046-.406C.21,13.753.21,13.746.2,13.738A1.4,1.4,0,0,1,.57,11.888L16.483,0C17.032.79,17.612,1.565,18.206,2.317Z" transform="translate(17.193 111.98)" fill="#f78d1e"/>
          <path id="Path_354" data-name="Path 354" d="M16.646,2.52l-14.5,8.171a1.429,1.429,0,0,1-1.986-.617c-.008-.007-.015-.015-.015-.023A1.437,1.437,0,0,1,.725,8.171L15.231,0C15.675.858,16.142,1.693,16.646,2.52Z" transform="translate(15.24 106.676)" fill="#f78d1e"/>
          <path id="Path_355" data-name="Path 355" d="M11.363,2.694,2.093,6.5A1.518,1.518,0,0,1,.055,5.47a.045.045,0,0,1-.007-.03,1.508,1.508,0,0,1,.91-1.776L10.287,0C10.618.91,10.972,1.806,11.363,2.694Z" transform="translate(17.687 100.995)" fill="#f78d1e"/>
          <path id="Path_356" data-name="Path 356" d="M3.2,2.513l-1.624.436A1.239,1.239,0,0,1,.1,2.235C.1,2.22.1,2.212.1,2.2A1.238,1.238,0,0,1,.849.549C1.421.361,2.075.15,2.542,0,2.737.85,2.955,1.685,3.2,2.513Z" transform="translate(23.746 95.337)" fill="#f78d1e"/>
          <path id="Path_357" data-name="Path 357" d="M13.852,2.874l-5.718.075L1.325,2.867A1.329,1.329,0,0,1,.008,1.6C.008,1.58,0,1.557,0,1.542A1.338,1.338,0,0,1,1.325.188L13.814,0C13.8.963,13.806,1.926,13.852,2.874Z" transform="translate(11.143 82.795)" fill="#f78d1e"/>
          <path id="Path_358" data-name="Path 358" d="M22.833,2.363c-.113.9-.211,1.791-.278,2.686-.008.06-.008.128-.016.188L1.2,2.747a1.363,1.363,0,0,1-1.2-1.475.326.326,0,0,1,.007-.038A1.361,1.361,0,0,1,1.518.008Z" transform="translate(2.56 74.247)" fill="#f78d1e"/>
          <path id="Path_359" data-name="Path 359" d="M26.507,5.947c-.226.941-.429,1.888-.6,2.844L1.106,2.862A1.442,1.442,0,0,1,.023,1.214c0-.008.008-.022.008-.03A1.433,1.433,0,0,1,1.776.041Z" transform="translate(0 64.569)" fill="#f78d1e"/>
          <path id="Path_360" data-name="Path 360" d="M26.986,9.532c-.323.9-.625,1.806-.9,2.716L.924,2.776A1.422,1.422,0,0,1,.073.992C.081.977.081.97.088.963A1.421,1.421,0,0,1,1.932.09Z" transform="translate(1.289 55.071)" fill="#f78d1e"/>
          <path id="Path_361" data-name="Path 361" d="M24.77,12.082c-.421.858-.813,1.73-1.189,2.611L.747,2.655A1.4,1.4,0,0,1,.152.781C.16.774.16.766.167.759a1.4,1.4,0,0,1,1.888-.6Z" transform="translate(5.927 46.765)" fill="#f78d1e"/>
          <path id="Path_362" data-name="Path 362" d="M20.309,12.911c-.519.813-1.008,1.64-1.467,2.475L.589,2.544A1.389,1.389,0,0,1,.228.648C.235.64.235.625.243.618A1.4,1.4,0,0,1,2.2.249Z" transform="translate(13.451 40.42)" fill="#f78d1e"/>
          <path id="Path_363" data-name="Path 363" d="M12.04,8.948c-.587.76-1.166,1.535-1.723,2.317L.438,2.349A1.336,1.336,0,0,1,.273.551.1.1,0,0,1,.3.521,1.328,1.328,0,0,1,2.229.333Z" transform="translate(25.368 39.171)" fill="#f78d1e"/>
          <path id="Path_364" data-name="Path 364" d="M2.407.563C1.79,1.2,1.2,1.842.616,2.5l-.03-.038L.571,2.452.323,2.173A1.293,1.293,0,0,1,.315.473C.323.465.331.45.338.443A1.29,1.29,0,0,1,2.227.383Z" transform="translate(39.08 42.868)" fill="#f78d1e"/>
          <path id="Path_365" data-name="Path 365" d="M9.851,15.3c-.8.534-1.588,1.083-2.37,1.67L3.4,8.813a.026.026,0,0,0,.007-.038L.138,1.981A1.374,1.374,0,0,1,.785.138C.8.131.815.131.83.123A1.372,1.372,0,0,1,2.62.763Z" transform="translate(41.958 19.457)" fill="#f78d1e"/>
          <path id="Path_366" data-name="Path 366" d="M10.614,23.334c-.858.444-1.708.9-2.544,1.392L.08,1.914A1.435,1.435,0,0,1,.937.093.028.028,0,0,0,.96.086,1.435,1.435,0,0,1,2.8.959Z" transform="translate(47.057 7.96)" fill="#f78d1e"/>
          <path id="Path_367" data-name="Path 367" d="M8.276,26.687c-.91.338-1.813.7-2.709,1.091L.03,1.671A1.277,1.277,0,0,1,0,1.385,1.377,1.377,0,0,1,1.106.03,1.375,1.375,0,0,1,2.739,1.091Z" transform="translate(55.804 1.764)" fill="#f78d1e"/>
          <path id="Path_368" data-name="Path 368" d="M5.062,26.374c-.948.218-1.888.467-2.821.752L.006,1.553A1.431,1.431,0,0,1,1.353,0h.03A1.432,1.432,0,0,1,2.91,1.3Z" transform="translate(65.835 0)" fill="#f78d1e"/>
          <path id="Path_369" data-name="Path 369" d="M3.732,1.512,2.889,22.488q-1.455.147-2.889.384L.805,1.4A1.462,1.462,0,0,1,2.468.014c.008,0,.015.007.03.007A1.436,1.436,0,0,1,3.732,1.512Z" transform="translate(75.208 2.645)" fill="#f78d1e"/>
          <path id="Path_370" data-name="Path 370" d="M4.853,1.523,2.9,14.7c-.707-.023-1.422-.03-2.137-.023-.256,0-.5.008-.76.015L2.212,1.109A1.317,1.317,0,0,1,3.732.018h.023A1.323,1.323,0,0,1,4.853,1.523Z" transform="translate(82.619 10.142)" fill="#f78d1e"/>
          <path id="Path_371" data-name="Path 371" d="M7.464,2.177l-4.89,8.186C1.731,9.919.873,9.5,0,9.106L3.1,3.892,4.966.71A1.437,1.437,0,0,1,6.7.085c.008,0,.015.007.023.007A1.436,1.436,0,0,1,7.464,2.177Z" transform="translate(105.108 20.149)" fill="#f78d1e"/>
          <path id="Path_372" data-name="Path 372" d="M12.866,2.308,2.34,15.813C1.58,15.226.8,14.662,0,14.128L10.6.547A1.423,1.423,0,0,1,12.452.2c.007.008.015.008.023.015A1.422,1.422,0,0,1,12.866,2.308Z" transform="translate(112.195 19.078)" fill="#f78d1e"/>
        </g>
        <g id="Group_24" data-name="Group 24" transform="translate(34.049 33.481)">
          <path id="Path_373" data-name="Path 373" d="M7.616,2.948.275,4.865C.248,4.454.035,2.109,0,1.945L6.838.054A1.483,1.483,0,0,1,8.668,1.1l.007.028A1.484,1.484,0,0,1,7.616,2.948Z" transform="translate(91.775 41.996)" fill="#f78d1e"/>
          <path id="Path_374" data-name="Path 374" d="M13.753,0c-.008.978-.038,1.964-.1,2.949L0,4.695c.091-1,.143-1.964.158-2.927Z" transform="translate(91.947 47.858)" fill="#f78d1e"/>
          <path id="Path_375" data-name="Path 375" d="M14.084,0c-.135.97-.293,1.934-.489,2.9L0,2.942c.211-.956.406-1.934.542-2.9Z" transform="translate(91.074 55.164)" fill="#f78d1e"/>
          <path id="Path_376" data-name="Path 376" d="M14.213,1.61c-.264.948-.549,1.889-.866,2.822L0,2.836C.339,1.888.655.955.91,0Z" transform="translate(89.486 60.566)" fill="#f78d1e"/>
          <path id="Path_377" data-name="Path 377" d="M14.1,3.228c-.376.91-.783,1.806-1.211,2.694L0,2.663C.451,1.8.9.91,1.272,0Z" transform="translate(87.304 65.569)" fill="#f78d1e"/>
          <path id="Path_378" data-name="Path 378" d="M13.784,4.732c-.482.85-.993,1.693-1.52,2.52L0,2.5C.579,1.67,1.1.828,1.6,0Z" transform="translate(84.596 70.226)" fill="#f78d1e"/>
          <path id="Path_379" data-name="Path 379" d="M13.264,6.14c-.58.79-1.174,1.565-1.8,2.332L0,2.28C.654,1.542,1.279.76,1.873,0Z" transform="translate(81.496 74.424)" fill="#f78d1e"/>
          <path id="Path_380" data-name="Path 380" d="M12.6,7.441Q11.44,8.728,10.187,9.954L0,2.2Q1.117,1.144,2.167,0Z" transform="translate(77.982 78.224)" fill="#f78d1e"/>
          <path id="Path_381" data-name="Path 381" d="M12.3,2.122,1.888,11.684C1.294,10.932.67,10.21,0,9.51L10.36,0c.083.075.166.151.241.233.09.083.166.173.248.256.256.278.512.557.76.835C11.842,1.587,12.076,1.851,12.3,2.122Z" transform="translate(82.181 14.354)" fill="#f78d1e"/>
          <path id="Path_382" data-name="Path 382" d="M13.1,2.4,1.482,10.661C1.023,9.826.527,9.006,0,8.208L11.557,0C12.1.782,12.61,1.587,13.1,2.4Z" transform="translate(85.86 20.306)" fill="#f78d1e"/>
          <path id="Path_383" data-name="Path 383" d="M13.648,2.656,1.174,9.345A28.333,28.333,0,0,0,0,6.711L12.5,0C12.918.873,13.295,1.753,13.648,2.656Z" transform="translate(88.704 26.949)" fill="#f78d1e"/>
          <path id="Path_384" data-name="Path 384" d="M13.761,2.814.678,7.855C.49,6.892.263,5.966,0,5.041L13.061,0C13.325.933,13.558,1.866,13.761,2.814Z" transform="translate(90.795 34.082)" fill="#f78d1e"/>
          <path id="Path_385" data-name="Path 385" d="M11.459,8.607c-.729.647-1.481,1.264-2.242,1.866L8.126,9.435,0,1.776C.782,1.219,1.557.617,2.317,0Z" transform="translate(74.175 81.911)" fill="#f78d1e"/>
          <path id="Path_386" data-name="Path 386" d="M10.466,9.691c-.8.564-1.6,1.106-2.415,1.618L0,1.573C.361,1.362.715,1.144,1.069.91,1.264.8,1.452.677,1.64.549c.271-.165.527-.346.8-.534A.056.056,0,0,1,2.468,0Z" transform="translate(70.278 84.679)" fill="#f78d1e"/>
          <path id="Path_387" data-name="Path 387" d="M9.345,10.571c-.85.482-1.708.933-2.573,1.369L0,1.3C.888.9,1.753.467,2.611,0Z" transform="translate(66.2 87.087)" fill="#f78d1e"/>
          <path id="Path_388" data-name="Path 388" d="M8.028,11.338c-.88.376-1.761.73-2.655,1.068L0,1.008V1C.91.7,1.813.369,2.7,0Z" transform="translate(62.039 89.028)" fill="#f78d1e"/>
          <path id="Path_389" data-name="Path 389" d="M6.7,11.955c-.918.286-1.836.542-2.761.783L0,.715C.948.512,1.881.279,2.806,0Z" transform="translate(57.721 90.495)" fill="#f78d1e"/>
          <path id="Path_390" data-name="Path 390" d="M5.222,12.407c-.925.188-1.866.346-2.807.474L0,.4C.414.361.82.308,1.235.256,1.776.181,2.317.1,2.852,0Z" transform="translate(53.372 91.503)" fill="#f78d1e"/>
          <path id="Path_391" data-name="Path 391" d="M3.7,12.7c-.948.083-1.9.143-2.852.165L0,.083H.324C1.166.083,2.009.053,2.852,0Z" transform="translate(48.986 92.038)" fill="#f78d1e"/>
          <path id="Path_392" data-name="Path 392" d="M3.589.241,2.845,13.084c-.955-.03-1.9-.075-2.845-.151L.767,0C1.7.113,2.642.2,3.589.241Z" transform="translate(43.877 91.834)" fill="#f78d1e"/>
          <path id="Path_393" data-name="Path 393" d="M5.222.587,2.836,13.4c-.955-.135-1.9-.293-2.836-.482L2.423,0C3.341.233,4.282.429,5.222.587Z" transform="translate(37.926 91.022)" fill="#f78d1e"/>
          <path id="Path_394" data-name="Path 394" d="M6.771.933l-4.01,12.6C1.828,13.295.91,13.016,0,12.715L4.033,0C4.928.346,5.846.662,6.771.933Z" transform="translate(32.17 89.705)" fill="#f78d1e"/>
          <path id="Path_395" data-name="Path 395" d="M8.247,1.241l-5.606,12.2C1.745,13.091.865,12.7,0,12.279L5.68,0C6.516.451,7.373.873,8.247,1.241Z" transform="translate(26.61 87.899)" fill="#f78d1e"/>
          <path id="Path_396" data-name="Path 396" d="M9.668,1.565,2.46,13.107C1.625,12.647.805,12.151,0,11.624L7.26,0C8.044.557,8.848,1.084,9.668,1.565Z" transform="translate(21.358 85.62)" fill="#f78d1e"/>
          <path id="Path_397" data-name="Path 397" d="M10.94,1.851,2.25,12.527c-.767-.572-1.52-1.166-2.25-1.8L8.728,0c.068.06.143.12.211.181.007,0,.007.008.015.008.324.293.647.579.985.858S10.6,1.587,10.94,1.851Z" transform="translate(16.543 82.926)" fill="#f78d1e"/>
          <path id="Path_398" data-name="Path 398" d="M12.038,2.076l-10.044,9.6C1.467,11.165.956,10.646.451,10.1.3,9.939.143,9.773,0,9.608L10.052,0a6.287,6.287,0,0,0,.466.549C11,1.076,11.511,1.587,12.038,2.076Z" transform="translate(12.217 79.864)" fill="#f78d1e"/>
          <path id="Path_399" data-name="Path 399" d="M12.9,2.317,1.715,10.609C1.121,9.856.542,9.081,0,8.291L11.159,0A24.02,24.02,0,0,0,12.9,2.317Z" transform="translate(8.463 76.471)" fill="#f78d1e"/>
          <path id="Path_400" data-name="Path 400" d="M13.5,2.49,1.4,9.314C.9,8.494.436,7.652,0,6.8L12.075,0A28.415,28.415,0,0,0,13.5,2.49Z" transform="translate(5.341 72.792)" fill="#f78d1e"/>
          <path id="Path_401" data-name="Path 401" d="M13.9,2.656,1.083,7.922Q.5,6.6,0,5.237L12.791,0A22.966,22.966,0,0,0,13.9,2.656Z" transform="translate(2.918 68.849)" fill="#f78d1e"/>
          <path id="Path_402" data-name="Path 402" d="M13.987,2.8.723,6.41C.451,5.485.211,4.559,0,3.611a22.562,22.562,0,0,1,2.995-.835l.023-.015L13.249,0C13.453.948,13.7,1.889,13.987,2.8Z" transform="translate(1.232 64.711)" fill="#f78d1e"/>
          <path id="Path_403" data-name="Path 403" d="M13.964,2.867,1.881,4.83A1.594,1.594,0,0,1,.339,4.206a1.516,1.516,0,0,1-.316-.73A1.527,1.527,0,0,1,.128,2.6a1.594,1.594,0,0,1,1.279-.986L13.52,0C13.573.572,13.911,2.641,13.964,2.867Z" transform="translate(0.209 60.483)" fill="#f78d1e"/>
          <path id="Path_404" data-name="Path 404" d="M13.6,2.874.043,3.055C.006,2.1-.009,1.144.006.181L13.5,0A25.9,25.9,0,0,0,13.6,2.874Z" transform="translate(0 56.194)" fill="#f78d1e"/>
          <path id="Path_405" data-name="Path 405" d="M13.573,1.482c-.12.978-.181,1.934-.218,2.867L0,2.882c0-.083.007-.173.015-.256C.083,1.746.173.873.287,0Z" transform="translate(0.149 50.401)" fill="#f78d1e"/>
          <path id="Path_406" data-name="Path 406" d="M13.49,3.092c-.2.925-.384,1.873-.5,2.852L0,2.829C.166,1.881.369.933.594,0Z" transform="translate(0.924 44.487)" fill="#f78d1e"/>
          <path id="Path_407" data-name="Path 407" d="M13.234,4.62c-.324.925-.564,1.851-.805,2.776L0,2.709Q.418,1.343.9,0Z" transform="translate(2.338 38.732)" fill="#f78d1e"/>
          <path id="Path_408" data-name="Path 408" d="M12.791,6.117c-.406.88-.767,1.761-1.114,2.663L0,2.618Q.554,1.3,1.189,0Z" transform="translate(4.407 33.126)" fill="#f78d1e"/>
          <path id="Path_409" data-name="Path 409" d="M12.136,7.449c-.286.5-.548,1-.8,1.512a.157.157,0,0,0-.045.075c-.173.323-.346.639-.512.956L0,2.46C.467,1.633.948.813,1.452,0Z" transform="translate(7.093 27.777)" fill="#f78d1e"/>
          <path id="Path_410" data-name="Path 410" d="M11.316,8.637c-.572.8-1.105,1.618-1.618,2.445L0,2.325Q.835,1.14,1.731,0Z" transform="translate(10.366 22.706)" fill="#f78d1e"/>
          <path id="Path_411" data-name="Path 411" d="M10.315,9.555c-.2.241-.414.482-.617.73-.421.5-.835,1.016-1.226,1.535L0,2C.594,1.324,1.2.655,1.836,0L5.68,4.183l.023.023.113.128Z" transform="translate(14.256 18.094)" fill="#f78d1e"/>
          <path id="Path_412" data-name="Path 412" d="M9.134,10.02c-.715.662-1.407,1.347-2.076,2.062L.287,2.511A1.561,1.561,0,0,1,.046,1.232,1.561,1.561,0,0,1,.678.307C.685.3.7.292.708.284a1.547,1.547,0,0,1,.7-.271,1.582,1.582,0,0,1,1.52.692Z" transform="translate(18.785 14.176)" fill="#f78d1e"/>
          <path id="Path_413" data-name="Path 413" d="M8.013,11.369c-.782.579-1.55,1.181-2.295,1.821L0,1.678C.775,1.1,1.566.542,2.362,0Z" transform="translate(23.713 9.667)" fill="#f78d1e"/>
          <path id="Path_414" data-name="Path 414" d="M6.771,11.985c-.858.481-1.693,1-2.514,1.55L0,1.422Q.394,1.185.789.97q.26-.158.519-.293C1.722.444,2.143.218,2.565,0Z" transform="translate(29.229 6.266)" fill="#f78d1e"/>
          <path id="Path_415" data-name="Path 415" d="M5.38,12.384c-.9.384-1.8.79-2.672,1.234L0,1.083C.888.7,1.806.331,2.716,0Z" transform="translate(35.307 3.558)" fill="#f78d1e"/>
          <path id="Path_416" data-name="Path 416" d="M3.9,12.693c-.94.256-1.865.542-2.784.865L0,.76C.948.474,1.873.2,2.821,0Z" transform="translate(41.846 1.519)" fill="#f78d1e"/>
          <path id="Path_417" data-name="Path 417" d="M3.378,0,2.912,12.8a2.148,2.148,0,0,0-.218.023c-.9.12-1.8.278-2.694.459L.489.384C1.438.226,2.4.083,3.378,0Z" transform="translate(48.278 0.33)" fill="#f78d1e"/>
          <path id="Path_418" data-name="Path 418" d="M5.041.052,2.957,12.8Q1.49,12.774,0,12.865L2.107.044A22.46,22.46,0,0,1,5.041.052Z" transform="translate(53.861 0)" fill="#f78d1e"/>
          <path id="Path_419" data-name="Path 419" d="M5.936,1.677,2.874,12.782C1.927,12.616.963,12.5,0,12.406L3.363.947a1.318,1.318,0,0,1,1.5-.925.324.324,0,0,0,.038.007A1.317,1.317,0,0,1,5.936,1.677Z" transform="translate(59.654 0.535)" fill="#f78d1e"/>
          <path id="Path_420" data-name="Path 420" d="M7.358,2.035,2.784,12.523C1.866,12.2.941,11.921,0,11.688.925,9.544,3.544,3.51,4.687.869A1.439,1.439,0,0,1,6.538.1a.027.027,0,0,1,.023.008A1.452,1.452,0,0,1,7.358,2.035Z" transform="translate(65.395 2.245)" fill="#f78d1e"/>
          <path id="Path_421" data-name="Path 421" d="M9.54,1.226,2.581,12.918c-.842-.466-1.708-.9-2.581-1.279L6.929,0A28.322,28.322,0,0,1,9.54,1.226Z" transform="translate(70.978 4.243)" fill="#f78d1e"/>
          <path id="Path_422" data-name="Path 422" d="M10.827,1.67,2.295,12.61C1.55,12.008.783,11.436,0,10.9L8.473,0C9.269.519,10.059,1.083,10.827,1.67Z" transform="translate(76.418 8.019)" fill="#f78d1e"/>
        </g>
        <g id="Group_25" data-name="Group 25" transform="translate(49.223 47.888)">
          <path id="Path_423" data-name="Path 423" d="M4.123,2.912l-3.9,1C.181,2.949.113,1.979,0,1.016L3.882,0C4,.955,4.078,1.934,4.123,2.912Z" transform="translate(71.077 29.96)" fill="#f78d1e"/>
          <path id="Path_424" data-name="Path 424" d="M4.123,0C4.1.978,4.048,1.956,3.957,2.927L0,3.446A27.461,27.461,0,0,0,.2.519Z" transform="translate(71.107 35.445)" fill="#f78d1e"/>
          <path id="Path_425" data-name="Path 425" d="M4.522,0c-.158.971-.346,1.934-.572,2.889L0,2.912c.241-.933.451-1.9.61-2.874Z" transform="translate(70.235 40.809)" fill="#f78d1e"/>
          <path id="Path_426" data-name="Path 426" d="M4.86.489c-.286.948-.6,1.889-.956,2.821L0,2.836C.376,1.889.692.955.994,0Z" transform="translate(68.737 45.466)" fill="#f78d1e"/>
          <path id="Path_427" data-name="Path 427" d="M5.131.955c-.384.9-.805,1.783-1.264,2.656L0,2.663C.5,1.8.956.888,1.354,0Z" transform="translate(66.698 49.823)" fill="#f78d1e"/>
          <path id="Path_428" data-name="Path 428" d="M5.3,1.437c-.489.842-1.016,1.67-1.565,2.483L0,2.445C.579,1.67,1.144.828,1.64,0Z" transform="translate(64.253 53.833)" fill="#f78d1e"/>
          <path id="Path_429" data-name="Path 429" d="M5.439,1.873c-.481.655-.986,1.294-1.512,1.926-.105.128-.211.256-.323.376L0,2.257C.7,1.52,1.338.76,1.94,0Z" transform="translate(61.44 57.421)" fill="#f78d1e"/>
          <path id="Path_430" data-name="Path 430" d="M5.425,2.348c-.7.752-1.414,1.475-2.159,2.159L0,2.024c.384-.316.76-.677,1.121-1.016S1.821.354,2.159,0Z" transform="translate(58.392 60.634)" fill="#f78d1e"/>
          <path id="Path_431" data-name="Path 431" d="M5.154,2.182,1.9,5.176C1.3,4.432.67,3.709,0,3.017L3.288,0C3.942.7,4.567,1.43,5.154,2.182Z" transform="translate(62.688 10.413)" fill="#f78d1e"/>
          <path id="Path_432" data-name="Path 432" d="M5.048,2.468,1.481,5C1.03,4.161.533,3.34,0,2.543L3.574,0C4.1.8,4.589,1.618,5.048,2.468Z" transform="translate(65.954 14.927)" fill="#f78d1e"/>
          <path id="Path_433" data-name="Path 433" d="M4.83,2.708,1.114,4.695A23.533,23.533,0,0,0,0,2.039L3.777,0C4.168.88,4.522,1.783,4.83,2.708Z" transform="translate(68.466 19.945)" fill="#f78d1e"/>
          <path id="Path_434" data-name="Path 434" d="M4.439,2.859.677,4.311C.5,3.348.271,2.423,0,1.49L3.822,0C4.07.941,4.274,1.889,4.439,2.859Z" transform="translate(70.257 25.295)" fill="#f78d1e"/>
          <path id="Path_435" data-name="Path 435" d="M5.169,2.641c-.745.632-1.5,1.241-2.28,1.813L0,1.73A23.346,23.346,0,0,0,2.355,0Z" transform="translate(55.029 63.809)" fill="#f78d1e"/>
          <path id="Path_436" data-name="Path 436" d="M5.026,3.04c-.8.549-1.618,1.068-2.445,1.55L0,1.482A24.4,24.4,0,0,0,2.505,0Z" transform="translate(51.621 66.134)" fill="#f78d1e"/>
          <path id="Path_437" data-name="Path 437" d="M4.823,3.378c-.857.467-1.731.9-2.618,1.294L0,1.189A28.471,28.471,0,0,0,2.656,0Z" transform="translate(48.069 68.09)" fill="#f78d1e"/>
          <path id="Path_438" data-name="Path 438" d="M4.492,3.732c-.888.361-1.791.692-2.7.993L0,.918A26.768,26.768,0,0,0,2.746,0Z" transform="translate(44.45 69.61)" fill="#f78d1e"/>
          <path id="Path_439" data-name="Path 439" d="M4.131,3.988c-.926.271-1.867.5-2.807.707L0,.609C.941.444,1.889.241,2.829,0Z" transform="translate(40.772 70.761)" fill="#f78d1e"/>
          <path id="Path_440" data-name="Path 440" d="M3.672,4.183c-.512.09-1.023.173-1.534.241-.437.06-.874.113-1.31.15L0,.286C.956.226,1.919.12,2.859,0Z" transform="translate(37.107 71.521)" fill="#f78d1e"/>
          <path id="Path_441" data-name="Path 441" d="M3.16,4.386q-1.445.09-2.867.068L0,0A19.215,19.215,0,0,0,2.866.023Z" transform="translate(33.421 71.829)" fill="#f78d1e"/>
          <path id="Path_442" data-name="Path 442" d="M3.107.286,2.821,4.732Q1.4,4.665,0,4.484L.271,0A27.037,27.037,0,0,0,3.107.286Z" transform="translate(29.538 71.514)" fill="#f78d1e"/>
          <path id="Path_443" data-name="Path 443" d="M3.649.6l-.82,4.424C1.873,4.868.933,4.672,0,4.439L.828,0c.234.06.466.12.7.173.045.007.083.023.128.03A20.27,20.27,0,0,0,3.649.6Z" transform="translate(25.408 70.776)" fill="#f78d1e"/>
          <path id="Path_444" data-name="Path 444" d="M4.1.91,2.739,5.191C1.814,4.92.9,4.6,0,4.258L1.369,0C2.257.346,3.175.647,4.1.91Z" transform="translate(21.458 69.685)" fill="#f78d1e"/>
          <path id="Path_445" data-name="Path 445" d="M4.462,1.226,2.6,5.274Q1.275,4.7,0,4.01L1.851,0A28.4,28.4,0,0,0,4.462,1.226Z" transform="translate(17.703 68.188)" fill="#f78d1e"/>
          <path id="Path_446" data-name="Path 446" d="M4.747,1.542,2.408,5.267C1.588,4.777.782,4.251,0,3.694L2.3,0A28.469,28.469,0,0,0,4.747,1.542Z" transform="translate(14.19 66.307)" fill="#f78d1e"/>
          <path id="Path_447" data-name="Path 447" d="M4.944,1.813,2.2,5.169c-.331-.263-.654-.519-.978-.79C.806,4.033.4,3.672,0,3.31L2.716,0A28.185,28.185,0,0,0,4.944,1.813Z" transform="translate(10.992 64.095)" fill="#f78d1e"/>
          <path id="Path_448" data-name="Path 448" d="M5.041,2.069,1.957,5C1.271,4.326.617,3.619,0,2.889L3.04,0C3.559.594,4.1,1.166,4.672,1.723,4.793,1.843,4.913,1.956,5.041,2.069Z" transform="translate(8.148 61.545)" fill="#f78d1e"/>
          <path id="Path_449" data-name="Path 449" d="M5.056,2.34,1.693,4.815C1.1,4.055.534,3.273,0,2.46L3.3,0C3.837.8,4.432,1.587,5.056,2.34Z" transform="translate(5.673 58.67)" fill="#f78d1e"/>
          <path id="Path_450" data-name="Path 450" d="M4.936,2.505l-3.559,2C.88,3.687.421,2.851,0,1.986L3.484,0C3.928.858,4.409,1.693,4.936,2.505Z" transform="translate(3.657 55.601)" fill="#f78d1e"/>
          <path id="Path_451" data-name="Path 451" d="M4.77,2.656l-3.7,1.52C.677,3.3.324,2.4,0,1.49L3.627,0A26.631,26.631,0,0,0,4.77,2.656Z" transform="translate(2.069 52.328)" fill="#f78d1e"/>
          <path id="Path_452" data-name="Path 452" d="M4.514,2.776.752,3.792C.466,2.882.211,1.956,0,1.008L3.7,0Q4.04,1.411,4.514,2.776Z" transform="translate(0.933 48.867)" fill="#f78d1e"/>
          <path id="Path_453" data-name="Path 453" d="M4.221,2.852.429,3.378C.256,2.445.105,1.5,0,.542L3.732,0C3.852.963,4.018,1.919,4.221,2.852Z" transform="translate(0.248 45.316)" fill="#f78d1e"/>
          <path id="Path_454" data-name="Path 454" d="M3.9,2.882l-3.77.045C.09,2.46.06,1.986.037,1.512S0,.542,0,.06L3.724,0C3.739.971,3.792,1.934,3.9,2.882Z" transform="translate(0 41.697)" fill="#f78d1e"/>
          <path id="Path_455" data-name="Path 455" d="M3.852.406c-.06.647-.1,1.294-.12,1.949-.015.316-.023.64-.015.956L0,2.9C.023,1.933.083.963.173,0Z" transform="translate(0.008 37.634)" fill="#f78d1e"/>
          <path id="Path_456" data-name="Path 456" d="M4.055.88c-.188.94-.331,1.881-.436,2.837L0,2.867Q.179,1.433.473,0Z" transform="translate(0.324 33.533)" fill="#f78d1e"/>
          <path id="Path_457" data-name="Path 457" d="M4.213,1.3c-.286.918-.534,1.851-.73,2.791L0,2.8Q.326,1.388.767,0Z" transform="translate(1.077 29.493)" fill="#f78d1e"/>
          <path id="Path_458" data-name="Path 458" d="M4.326,1.715c-.384.9-.73,1.8-1.031,2.716L0,2.678C.317,1.775.662.88,1.038,0Z" transform="translate(2.265 25.528)" fill="#f78d1e"/>
          <path id="Path_459" data-name="Path 459" d="M4.379,2.144c-.467.842-.9,1.7-1.3,2.581L0,2.566C.406,1.7.843.843,1.317,0Z" transform="translate(3.905 21.638)" fill="#f78d1e"/>
          <path id="Path_460" data-name="Path 460" d="M4.394,2.543C3.837,3.348,3.31,4.161,2.821,5L0,2.438C.5,1.61,1.023.8,1.587,0Z" transform="translate(5.974 17.899)" fill="#f78d1e"/>
          <path id="Path_461" data-name="Path 461" d="M4.349,2.927c-.639.73-1.249,1.49-1.82,2.265L0,2.257C.436,1.678.888,1.106,1.362.542,1.512.361,1.67.181,1.828,0Z" transform="translate(8.502 14.34)" fill="#f78d1e"/>
          <path id="Path_462" data-name="Path 462" d="M4.251,3.288c-.459.421-.9.858-1.339,1.309-.248.256-.489.512-.73.775L0,2.069C.67,1.347,1.354.655,2.069,0Z" transform="translate(11.474 10.992)" fill="#f78d1e"/>
          <path id="Path_463" data-name="Path 463" d="M4.093,3.612C3.31,4.2,2.543,4.815,1.8,5.47L0,1.836C.745,1.189,1.5.579,2.287,0Z" transform="translate(14.912 7.922)" fill="#f78d1e"/>
          <path id="Path_464" data-name="Path 464" d="M3.875,3.9c-.85.5-1.678,1.023-2.491,1.58L0,1.58C.82,1.016,1.663.489,2.521,0Z" transform="translate(18.779 5.214)" fill="#f78d1e"/>
          <path id="Path_465" data-name="Path 465" d="M3.566,4.108c-.391.165-.782.338-1.165.519-.5.233-1,.482-1.5.737L0,1.226C.354,1.038.708.865,1.069.692c.09-.045.18-.083.27-.128Q2,.271,2.694,0Z" transform="translate(23.128 2.987)" fill="#f78d1e"/>
          <path id="Path_466" data-name="Path 466" d="M3.183,4.206c-.948.263-1.889.572-2.806.918L0,.858C.925.549,1.858.241,2.806,0Z" transform="translate(27.913 1.339)" fill="#f78d1e"/>
          <path id="Path_467" data-name="Path 467" d="M3.062,0,2.9,4.243c-.978.135-1.941.316-2.9.527L.151.489A28.969,28.969,0,0,1,3.062,0Z" transform="translate(32.894 0.316)" fill="#f78d1e"/>
          <path id="Path_468" data-name="Path 468" d="M3.641,0,2.964,4.221c-.73,0-1.467.023-2.2.068C.5,4.3.256,4.326,0,4.341L.707.075C1.685,0,2.664,0,3.641,0Z" transform="translate(37.724 0)" fill="#f78d1e"/>
          <path id="Path_469" data-name="Path 469" d="M4.146.308,2.912,4.5C1.957,4.349.986,4.243,0,4.176L1.249,0C2.2.06,3.175.181,4.146.308Z" transform="translate(42.758 0.113)" fill="#f78d1e"/>
          <path id="Path_470" data-name="Path 470" d="M4.59.745,2.784,4.83C1.874,4.522.941,4.266,0,4.048L1.791,0C2.754.2,3.665.466,4.59.745Z" transform="translate(47.821 0.986)" fill="#f78d1e"/>
          <path id="Path_471" data-name="Path 471" d="M4.921,1.211l-.015.03L2.588,5.124C1.746,4.672.88,4.259,0,3.89L2.325,0c.159.06.309.12.459.181A17.514,17.514,0,0,1,4.921,1.211Z" transform="translate(52.749 2.724)" fill="#f78d1e"/>
          <path id="Path_472" data-name="Path 472" d="M5.063,1.7,2.31,5.237C1.565,4.642.79,4.078,0,3.559L2.776,0C3.559.527,4.326,1.091,5.063,1.7Z" transform="translate(57.595 5.635)" fill="#f78d1e"/>
        </g>
        <g id="Group_27" data-name="Group 27" transform="translate(54.362 53.531)">
          <path id="Path_473" data-name="Path 473" d="M2.1,2.912.211,3.423C.181,2.415.113,1.452,0,.481L1.919,0C2.024.955,2.084,1.934,2.1,2.912Z" transform="translate(62.447 25.739)" fill="#f78d1e"/>
          <path id="Path_474" data-name="Path 474" d="M2.114,0c-.038.986-.12,1.971-.248,2.942L0,3.2C.114,2.212.2,1.211.241.226Z" transform="translate(62.41 30.531)" fill="#f78d1e"/>
          <path id="Path_475" data-name="Path 475" d="M2.521,0c-.181.971-.4,1.934-.655,2.882L0,2.889A24.765,24.765,0,0,0,.685.023Z" transform="translate(61.492 35.196)" fill="#f78d1e"/>
          <path id="Path_476" data-name="Path 476" d="M2.828.225c-.308.948-.655,1.889-1.046,2.814L0,2.836C.383,1.888.737.955,1.038,0Z" transform="translate(60.063 39.402)" fill="#f78d1e"/>
          <path id="Path_477" data-name="Path 477" d="M3.092.421Q2.461,1.764,1.716,3.062L0,2.618C.5,1.753.964.888,1.4,0Z" transform="translate(58.159 43.352)" fill="#f78d1e"/>
          <path id="Path_478" data-name="Path 478" d="M3.348.632c-.527.835-1.091,1.663-1.685,2.46L0,2.445A24.737,24.737,0,0,0,1.723,0Z" transform="translate(55.834 46.941)" fill="#f78d1e"/>
          <path id="Path_479" data-name="Path 479" d="M3.5.835c-.609.775-1.256,1.52-1.941,2.25L0,2.25C.7,1.52,1.354.775,1.979,0Z" transform="translate(53.261 50.146)" fill="#f78d1e"/>
          <path id="Path_480" data-name="Path 480" d="M3.635,1.008c-.7.707-1.423,1.384-2.168,2.024L0,2C.549,1.527,1.1,1.053,1.648.534L2.22,0Z" transform="translate(50.424 53.013)" fill="#f78d1e"/>
          <path id="Path_481" data-name="Path 481" d="M3.694,2.167,1.949,3.777c-.293-.361-.625-.722-.955-1.083S.331,1.971,0,1.655L1.806,0A27.1,27.1,0,0,1,3.694,2.167Z" transform="translate(54.705 8.743)" fill="#f78d1e"/>
          <path id="Path_482" data-name="Path 482" d="M3.393,2.46,1.55,3.762A18.434,18.434,0,0,0,0,1.354L1.919,0C2.453.8,2.942,1.618,3.393,2.46Z" transform="translate(57.745 12.655)" fill="#f78d1e"/>
          <path id="Path_483" data-name="Path 483" d="M2.965,2.724,1.106,3.732A19.819,19.819,0,0,0,0,1.038L1.934,0C2.317.888,2.663,1.791,2.965,2.724Z" transform="translate(60.123 17.004)" fill="#f78d1e"/>
          <path id="Path_484" data-name="Path 484" d="M2.445,2.874l-1.8.692C.466,2.6.263,1.655,0,.73L1.881,0C2.114.94,2.3,1.9,2.445,2.874Z" transform="translate(61.771 21.699)" fill="#f78d1e"/>
          <path id="Path_485" data-name="Path 485" d="M3.506,1.023c-.767.617-1.55,1.2-2.355,1.745L0,1.693C.82,1.174,1.64.617,2.438,0Z" transform="translate(47.377 55.864)" fill="#f78d1e"/>
          <path id="Path_486" data-name="Path 486" d="M3.551,1.174C2.724,1.7,1.889,2.2,1.031,2.663L0,1.415C.85.986,1.708.512,2.566,0Z" transform="translate(44.292 57.918)" fill="#f78d1e"/>
          <path id="Path_487" data-name="Path 487" d="M3.567,1.362Q2.257,2.028.91,2.581L0,1.144A27.893,27.893,0,0,0,2.7,0Z" transform="translate(41.072 59.581)" fill="#f78d1e"/>
          <path id="Path_488" data-name="Path 488" d="M3.484,1.535c-.9.346-1.806.654-2.724.918L0,.857A26.558,26.558,0,0,0,2.761,0Z" transform="translate(37.837 60.89)" fill="#f78d1e"/>
          <path id="Path_489" data-name="Path 489" d="M3.386,1.678c-.933.256-1.873.466-2.822.639L0,.572A28.257,28.257,0,0,0,2.836,0Z" transform="translate(34.549 61.853)" fill="#f78d1e"/>
          <path id="Path_490" data-name="Path 490" d="M3.2,1.806c-.947.158-1.9.271-2.851.346L0,.286C.955.226,1.9.143,2.858,0Z" transform="translate(31.3 62.47)" fill="#f78d1e"/>
          <path id="Path_491" data-name="Path 491" d="M3,1.964q-1.444.09-2.866.045L0,0C.955.06,1.911.083,2.867.06Z" transform="translate(28.041 62.696)" fill="#f78d1e"/>
          <path id="Path_492" data-name="Path 492" d="M2.979.346l-.128,2C1.889,2.3.933,2.212,0,2.084L.12,0A25.729,25.729,0,0,0,2.979.346Z" transform="translate(24.738 62.335)" fill="#f78d1e"/>
          <path id="Path_493" data-name="Path 493" d="M3.205.662,2.814,2.724C1.859,2.581.919,2.377,0,2.144L.4,0A19.01,19.01,0,0,0,3.205.662Z" transform="translate(21.352 61.597)" fill="#f78d1e"/>
          <path id="Path_494" data-name="Path 494" d="M3.392.971,2.738,3.025A28.422,28.422,0,0,1,0,2.114L.669,0C1.549.361,2.467.685,3.392.971Z" transform="translate(18.118 60.574)" fill="#f78d1e"/>
          <path id="Path_495" data-name="Path 495" d="M3.529,1.249,2.581,3.273A26.959,26.959,0,0,1,0,2.054L.941,0A27.194,27.194,0,0,0,3.529,1.249Z" transform="translate(15.032 59.212)" fill="#f78d1e"/>
          <path id="Path_496" data-name="Path 496" d="M3.641,1.565,2.422,3.506A27.781,27.781,0,0,1,0,1.979L1.218,0A18.993,18.993,0,0,0,3.641,1.565Z" transform="translate(12.114 57.489)" fill="#f78d1e"/>
          <path id="Path_497" data-name="Path 497" d="M3.679,1.828,2.22,3.619A28.112,28.112,0,0,1,0,1.806L1.46,0A23.851,23.851,0,0,0,3.679,1.828Z" transform="translate(9.457 55.533)" fill="#f78d1e"/>
          <path id="Path_498" data-name="Path 498" d="M3.694,2.076,2,3.7c-.128-.128-.263-.248-.391-.376C1.046,2.776.512,2.212,0,1.625L1.708,0a8.378,8.378,0,0,0,.6.7C2.754,1.181,3.22,1.655,3.694,2.076Z" transform="translate(7.065 53.283)" fill="#f78d1e"/>
          <path id="Path_499" data-name="Path 499" d="M3.642,2.31,1.753,3.7A26.106,26.106,0,0,1,0,1.4L1.9,0A23.717,23.717,0,0,0,3.642,2.31Z" transform="translate(4.973 50.801)" fill="#f78d1e"/>
          <path id="Path_500" data-name="Path 500" d="M3.521,2.483,1.437,3.641A27.9,27.9,0,0,1,0,1.166L2.062,0A18.675,18.675,0,0,0,3.521,2.483Z" transform="translate(3.243 48.107)" fill="#f78d1e"/>
          <path id="Path_501" data-name="Path 501" d="M3.326,2.656l-2.189.9A27.6,27.6,0,0,1,0,.9L2.174,0A23.178,23.178,0,0,0,3.326,2.656Z" transform="translate(1.866 45.24)" fill="#f78d1e"/>
          <path id="Path_502" data-name="Path 502" d="M3.085,2.746.812,3.363C.5,2.46.226,1.535,0,.594L2.242,0A26.171,26.171,0,0,0,3.085,2.746Z" transform="translate(0.865 42.269)" fill="#f78d1e"/>
          <path id="Path_503" data-name="Path 503" d="M2.813,2.837.5,3.167C.285,2.235.12,1.287,0,.316L2.279,0A22.455,22.455,0,0,0,2.813,2.837Z" transform="translate(0.249 39.169)" fill="#f78d1e"/>
          <path id="Path_504" data-name="Path 504" d="M2.49,2.859l-2.317.03C.075,1.941.015.986,0,.015L2.25,0A21.116,21.116,0,0,0,2.49,2.859Z" transform="translate(0.008 36.024)" fill="#f78d1e"/>
          <path id="Path_505" data-name="Path 505" d="M2.347.241a28.965,28.965,0,0,0-.1,2.9L0,2.9c0-.354,0-.722.015-1.083C.038,1.211.076.609.135,0Z" transform="translate(0 32.57)" fill="#f78d1e"/>
          <path id="Path_506" data-name="Path 506" d="M2.6.512A27.832,27.832,0,0,0,2.2,3.386L0,2.859C.105,1.9.249.948.437,0Z" transform="translate(0.188 29.079)" fill="#f78d1e"/>
          <path id="Path_507" data-name="Path 507" d="M2.821.8a27.741,27.741,0,0,0-.715,2.8L0,2.791C.2,1.851.436.925.715,0Z" transform="translate(0.76 25.649)" fill="#f78d1e"/>
          <path id="Path_508" data-name="Path 508" d="M2.987,1.038c-.369.925-.692,1.806-.971,2.731L0,2.716C.3,1.8.64.888,1.016,0Z" transform="translate(1.685 22.255)" fill="#f78d1e"/>
          <path id="Path_509" data-name="Path 509" d="M3.13,1.287c-.466.85-.873,1.731-1.271,2.611L0,2.6C.391,1.715.828.85,1.294,0Z" transform="translate(3.017 18.937)" fill="#f78d1e"/>
          <path id="Path_510" data-name="Path 510" d="M3.251,1.527C2.687,2.355,2.182,3.168,1.7,4L0,2.483C.5,1.64,1.023.813,1.588,0Z" transform="translate(4.71 15.74)" fill="#f78d1e"/>
          <path id="Path_511" data-name="Path 511" d="M3.333,1.746c-.64.752-1.264,1.52-1.828,2.31L0,2.31C.58,1.52,1.2.745,1.836,0Z" transform="translate(6.824 12.678)" fill="#f78d1e"/>
          <path id="Path_512" data-name="Path 512" d="M3.333,1.956c-.7.685-1.384,1.385-2.024,2.092L0,2.107c.3-.338.617-.669.933-1C1.3.73,1.678.361,2.054,0Z" transform="translate(9.322 9.826)" fill="#f78d1e"/>
          <path id="Path_513" data-name="Path 513" d="M3.341,2.122c-.775.6-1.535,1.219-2.28,1.9L0,1.873C.737,1.219,1.5.594,2.272,0Z" transform="translate(12.226 7.178)" fill="#f78d1e"/>
          <path id="Path_514" data-name="Path 514" d="M3.317,2.347A20.224,20.224,0,0,0,.827,3.973L0,1.618C.812,1.046,1.647.5,2.5,0Z" transform="translate(15.5 4.83)" fill="#f78d1e"/>
          <path id="Path_515" data-name="Path 515" d="M3.205,2.475C2.31,2.866,1.422,3.3.542,3.784L0,1.294C.873.828,1.761.4,2.663,0Z" transform="translate(19.193 2.859)" fill="#f78d1e"/>
          <path id="Path_516" data-name="Path 516" d="M3,2.566c-.948.286-1.881.594-2.791.963L0,.925C.918.579,1.843.263,2.784,0Z" transform="translate(23.286 1.347)" fill="#f78d1e"/>
          <path id="Path_517" data-name="Path 517" d="M3.009,0l-.09,2.656A22.207,22.207,0,0,0,0,3.228L.113.564C1.069.331,2.039.143,3.009,0Z" transform="translate(27.582 0.354)" fill="#f78d1e"/>
          <path id="Path_518" data-name="Path 518" d="M3.378,0,2.958,2.626C2,2.648,1,2.708,0,2.806L.421.15C.783.113,1.144.083,1.512.06,2.144.022,2.761,0,3.378,0Z" transform="translate(31.916 0)" fill="#f78d1e"/>
          <path id="Path_519" data-name="Path 519" d="M3.664.293l-.76,2.6A26.329,26.329,0,0,0,0,2.626L.783,0C1.753.052,2.716.15,3.664.293Z" transform="translate(36.438 0.053)" fill="#f78d1e"/>
          <path id="Path_520" data-name="Path 520" d="M3.9.76,2.8,3.243A21.774,21.774,0,0,0,0,2.536L1.114,0A26.774,26.774,0,0,1,3.9.76Z" transform="translate(40.997 0.722)" fill="#f78d1e"/>
          <path id="Path_521" data-name="Path 521" d="M3.988,1.226,2.618,3.513A19.97,19.97,0,0,0,0,2.325L1.392,0A25.5,25.5,0,0,1,3.988,1.226Z" transform="translate(45.481 2.204)" fill="#f78d1e"/>
          <g id="Group_26" data-name="Group 26" transform="translate(49.973 4.665)">
            <path id="Path_522" data-name="Path 522" d="M3.92,1.685,2.355,3.694A23.839,23.839,0,0,0,0,2.069L1.6,0A27.983,27.983,0,0,1,3.92,1.685Z" transform="translate(0 0)" fill="#f78d1e"/>
          </g>
        </g>
        <g id="Group_28" data-name="Group 28" transform="translate(0 0)">
          <circle id="Ellipse_11" data-name="Ellipse 11" cx="2.305" cy="2.305" r="2.305" transform="translate(165.051 109.575)" fill="#f78d1e"/>
          <circle id="Ellipse_12" data-name="Ellipse 12" cx="2.288" cy="2.288" r="2.288" transform="translate(145.556 27.982)" fill="#f78d1e"/>
          <circle id="Ellipse_13" data-name="Ellipse 13" cx="2.288" cy="2.288" r="2.288" transform="translate(60.534 0)" fill="#f78d1e"/>
          <circle id="Ellipse_14" data-name="Ellipse 14" cx="2.288" cy="2.288" r="2.288" transform="translate(23.884 141.439)" fill="#f78d1e"/>
          <circle id="Ellipse_15" data-name="Ellipse 15" cx="2.288" cy="2.288" r="2.288" transform="translate(0 58.135)" fill="#f78d1e"/>
          <circle id="Ellipse_16" data-name="Ellipse 16" cx="2.288" cy="2.288" r="2.288" transform="translate(105.653 168.232)" fill="#f78d1e"/>
        </g>
        <g id="Group_30" data-name="Group 30" transform="translate(104.756 50.792)">
          <g id="Group_29" data-name="Group 29">
            <path id="Path_523" data-name="Path 523" d="M0,0C.715.324,1.429.685,2.122,1.061l.015-.03A17.5,17.5,0,0,0,0,0Z" fill="#f78d1e"/>
          </g>
        </g>
      </g>
    </g>
    <text id="Contact" transform="translate(1449.582 7429.025)" fill="#edeaeb" font-size="30" font-family="PaytoneOne-Regular, Paytone One"><tspan x="0" y="0">Contact</tspan></text>
  </g>
</svg>
