<svg id="Group_81" data-name="Group 81" xmlns="http://www.w3.org/2000/svg" width="454.671" height="145.266" viewBox="0 0 454.671 145.266">
  <g id="Group_78" data-name="Group 78" transform="translate(357.895)">
    <path id="Rectangle_14" data-name="Rectangle 14" d="M0,0H0A47.345,47.345,0,0,1,47.345,47.345v0a0,0,0,0,1,0,0H0a0,0,0,0,1,0,0V0A0,0,0,0,1,0,0Z" transform="translate(47.345 97.92) rotate(90)" fill="#edeaeb"/>
    <path id="Rectangle_15" data-name="Rectangle 15" d="M0,0H0A47.345,47.345,0,0,1,47.345,47.345v0a0,0,0,0,1,0,0H0a0,0,0,0,1,0,0V0A0,0,0,0,1,0,0Z" transform="translate(96.777 145.266) rotate(180)" fill="#edeaeb"/>
    <path id="Rectangle_16" data-name="Rectangle 16" d="M0,0H47.345a0,0,0,0,1,0,0V0A47.345,47.345,0,0,1,0,47.345H0a0,0,0,0,1,0,0V0A0,0,0,0,1,0,0Z" transform="translate(0 96.366) rotate(-90)" fill="#edeaeb"/>
    <path id="Rectangle_17" data-name="Rectangle 17" d="M0,0H47.345a0,0,0,0,1,0,0V0A47.345,47.345,0,0,1,0,47.345H0a0,0,0,0,1,0,0V0A0,0,0,0,1,0,0Z" transform="translate(96.777 96.366) rotate(180)" fill="#edeaeb"/>
    <path id="Rectangle_18" data-name="Rectangle 18" d="M0,0H0A47.345,47.345,0,0,1,47.345,47.345v0a0,0,0,0,1,0,0H0a0,0,0,0,1,0,0V0A0,0,0,0,1,0,0Z" transform="translate(47.345 0) rotate(90)" fill="#edeaeb"/>
    <path id="Rectangle_19" data-name="Rectangle 19" d="M0,0H0A47.345,47.345,0,0,1,47.345,47.345v0a0,0,0,0,1,0,0H0a0,0,0,0,1,0,0V0A0,0,0,0,1,0,0Z" transform="translate(96.777 47.346) rotate(180)" fill="#edeaeb"/>
  </g>
  <g id="Group_80" data-name="Group 80" transform="translate(0 0)">
    <path id="Rectangle_22" data-name="Rectangle 22" d="M0,0H47.345a0,0,0,0,1,0,0V0A47.345,47.345,0,0,1,0,47.345H0a0,0,0,0,1,0,0V0A0,0,0,0,1,0,0Z" transform="translate(0 145.265) rotate(-90)" fill="#edeaeb"/>
    <path id="Rectangle_23" data-name="Rectangle 23" d="M0,0H0A47.345,47.345,0,0,1,47.345,47.345v0a0,0,0,0,1,0,0H0a0,0,0,0,1,0,0V0A0,0,0,0,1,0,0Z" transform="translate(96.777 145.265) rotate(180)" fill="#edeaeb"/>
    <path id="Rectangle_24" data-name="Rectangle 24" d="M0,0H0A47.345,47.345,0,0,1,47.345,47.345v0a0,0,0,0,1,0,0H0a0,0,0,0,1,0,0V0A0,0,0,0,1,0,0Z" transform="translate(47.345 49.022) rotate(90)" fill="#edeaeb"/>
    <path id="Rectangle_25" data-name="Rectangle 25" d="M0,0H47.345a0,0,0,0,1,0,0V0A47.345,47.345,0,0,1,0,47.345H0a0,0,0,0,1,0,0V0A0,0,0,0,1,0,0Z" transform="translate(96.777 96.366) rotate(180)" fill="#edeaeb"/>
    <path id="Rectangle_26" data-name="Rectangle 26" d="M0,0H47.345a0,0,0,0,1,0,0V0A47.345,47.345,0,0,1,0,47.345H0a0,0,0,0,1,0,0V0A0,0,0,0,1,0,0Z" transform="translate(0 47.345) rotate(-90)" fill="#edeaeb"/>
    <path id="Rectangle_27" data-name="Rectangle 27" d="M0,0H0A47.345,47.345,0,0,1,47.345,47.345v0a0,0,0,0,1,0,0H0a0,0,0,0,1,0,0V0A0,0,0,0,1,0,0Z" transform="translate(96.777 47.345) rotate(180)" fill="#edeaeb"/>
  </g>
  <g id="Group_79" data-name="Group 79" transform="translate(179.215)">
    <path id="Rectangle_28" data-name="Rectangle 28" d="M0,0H0A47.345,47.345,0,0,1,47.345,47.345v0a0,0,0,0,1,0,0H0a0,0,0,0,1,0,0V0A0,0,0,0,1,0,0Z" transform="translate(0 96.366) rotate(-90)" fill="#edeaeb"/>
    <path id="Rectangle_29" data-name="Rectangle 29" d="M0,0H0A47.345,47.345,0,0,1,47.345,47.345v0a0,0,0,0,1,0,0H0a0,0,0,0,1,0,0V0A0,0,0,0,1,0,0Z" transform="translate(48.896 145.206) rotate(-90)" fill="#edeaeb"/>
    <path id="Rectangle_30" data-name="Rectangle 30" d="M23.673,0H47.345a0,0,0,0,1,0,0V47.345a0,0,0,0,1,0,0H23.673A23.673,23.673,0,0,1,0,23.673v0A23.673,23.673,0,0,1,23.673,0Z" transform="translate(0.441 145.266) rotate(-90)" fill="#edeaeb"/>
    <path id="Rectangle_31" data-name="Rectangle 31" d="M0,0H0A47.345,47.345,0,0,1,47.345,47.345v0a0,0,0,0,1,0,0H0a0,0,0,0,1,0,0V0A0,0,0,0,1,0,0Z" transform="translate(96.242 48.961) rotate(90)" fill="#edeaeb"/>
    <circle id="Ellipse_17" data-name="Ellipse 17" cx="22.151" cy="22.151" r="22.151" transform="translate(17.082)" fill="#edeaeb"/>
  </g>
  <text id="_" data-name="+" transform="translate(125.12 81.515)" fill="#edeaeb" font-size="48" font-family="PaytoneOne-Regular, Paytone One"><tspan x="0" y="0">+</tspan></text>
  <text id="_2" data-name="+" transform="translate(295.416 81.515)" fill="#edeaeb" font-size="48" font-family="PaytoneOne-Regular, Paytone One"><tspan x="0" y="0">+</tspan></text>
</svg>
