<svg xmlns="http://www.w3.org/2000/svg" width="542.455" height="269.344" viewBox="0 0 542.455 269.344">
  <g id="Group_130" data-name="Group 130" transform="translate(-114.143 -856.343)">
    <path id="Rectangle_14" data-name="Rectangle 14" d="M0,0H0A87.748,87.748,0,0,1,87.748,87.748v0a0,0,0,0,1,0,0H0a0,0,0,0,1,0,0V0A0,0,0,0,1,0,0Z" transform="translate(564.984 1037.827) rotate(90)" fill="#00858d"/>
    <path id="Rectangle_15" data-name="Rectangle 15" d="M0,0H0A87.748,87.748,0,0,1,87.748,87.748v0a0,0,0,0,1,0,0H0a0,0,0,0,1,0,0V0A0,0,0,0,1,0,0Z" transform="translate(656.599 1125.575) rotate(180)" fill="#f37321"/>
    <path id="Rectangle_16" data-name="Rectangle 16" d="M0,0H87.748a0,0,0,0,1,0,0V0A87.748,87.748,0,0,1,0,87.748H0a0,0,0,0,1,0,0V0A0,0,0,0,1,0,0Z" transform="translate(477.235 1034.945) rotate(-90)" fill="#5ab6c9"/>
    <path id="Rectangle_17" data-name="Rectangle 17" d="M0,0H87.748a0,0,0,0,1,0,0V0A87.748,87.748,0,0,1,0,87.748H0a0,0,0,0,1,0,0V0A0,0,0,0,1,0,0Z" transform="translate(656.599 1034.945) rotate(180)" fill="#00587b"/>
    <path id="Rectangle_18" data-name="Rectangle 18" d="M0,0H0A87.748,87.748,0,0,1,87.748,87.748v0a0,0,0,0,1,0,0H0a0,0,0,0,1,0,0V0A0,0,0,0,1,0,0Z" transform="translate(564.984 856.343) rotate(90)" fill="#f7b219"/>
    <path id="Rectangle_19" data-name="Rectangle 19" d="M0,0H0A87.748,87.748,0,0,1,87.748,87.748v0a0,0,0,0,1,0,0H0a0,0,0,0,1,0,0V0A0,0,0,0,1,0,0Z" transform="translate(656.599 944.091) rotate(180)" fill="#f8d213"/>
    <path id="Rectangle_22" data-name="Rectangle 22" d="M0,0H87.748a0,0,0,0,1,0,0V0A87.748,87.748,0,0,1,0,87.748H0a0,0,0,0,1,0,0V0A0,0,0,0,1,0,0Z" transform="translate(114.143 1125.687) rotate(-90)" fill="#00858d"/>
    <path id="Rectangle_23" data-name="Rectangle 23" d="M0,0H0A87.748,87.748,0,0,1,87.748,87.748v0a0,0,0,0,1,0,0H0a0,0,0,0,1,0,0V0A0,0,0,0,1,0,0Z" transform="translate(293.507 1125.687) rotate(180)" fill="#f37321"/>
    <path id="Rectangle_24" data-name="Rectangle 24" d="M0,0H0A87.748,87.748,0,0,1,87.748,87.748v0a0,0,0,0,1,0,0H0a0,0,0,0,1,0,0V0A0,0,0,0,1,0,0Z" transform="translate(201.892 947.309) rotate(90)" fill="#5ab6c9"/>
    <path id="Rectangle_25" data-name="Rectangle 25" d="M0,0H87.748a0,0,0,0,1,0,0V0A87.748,87.748,0,0,1,0,87.748H0a0,0,0,0,1,0,0V0A0,0,0,0,1,0,0Z" transform="translate(293.507 1035.057) rotate(180)" fill="#00587b"/>
    <path id="Rectangle_26" data-name="Rectangle 26" d="M0,0H87.748a0,0,0,0,1,0,0V0A87.748,87.748,0,0,1,0,87.748H0a0,0,0,0,1,0,0V0A0,0,0,0,1,0,0Z" transform="translate(114.143 944.203) rotate(-90)" fill="#f7b219"/>
    <path id="Rectangle_27" data-name="Rectangle 27" d="M0,0H0A87.748,87.748,0,0,1,87.748,87.748v0a0,0,0,0,1,0,0H0a0,0,0,0,1,0,0V0A0,0,0,0,1,0,0Z" transform="translate(293.507 944.203) rotate(180)" fill="#f8d213"/>
    <path id="Rectangle_28" data-name="Rectangle 28" d="M0,0H0A87.748,87.748,0,0,1,87.748,87.748v0a0,0,0,0,1,0,0H0a0,0,0,0,1,0,0V0A0,0,0,0,1,0,0Z" transform="translate(295.999 1035.057) rotate(-90)" fill="#f78d1e"/>
    <path id="Rectangle_29" data-name="Rectangle 29" d="M0,0H0A87.748,87.748,0,0,1,87.748,87.748v0a0,0,0,0,1,0,0H0a0,0,0,0,1,0,0V0A0,0,0,0,1,0,0Z" transform="translate(386.622 1125.575) rotate(-90)" fill="#00858d"/>
    <path id="Rectangle_30" data-name="Rectangle 30" d="M43.874,0H87.748a0,0,0,0,1,0,0V87.748a0,0,0,0,1,0,0H43.874A43.874,43.874,0,0,1,0,43.874v0A43.874,43.874,0,0,1,43.874,0Z" transform="translate(296.815 1125.687) rotate(-90)" fill="#88cfd8"/>
    <path id="Rectangle_31" data-name="Rectangle 31" d="M0,0H0A87.748,87.748,0,0,1,87.748,87.748v0a0,0,0,0,1,0,0H0a0,0,0,0,1,0,0V0A0,0,0,0,1,0,0Z" transform="translate(474.37 947.197) rotate(90)" fill="#f37321"/>
    <circle id="Ellipse_17" data-name="Ellipse 17" cx="41.054" cy="41.054" r="41.054" transform="translate(327.658 856.455)" fill="#f8d213"/>
  </g>
</svg>
