<svg xmlns="http://www.w3.org/2000/svg" width="274.958" height="136.524" viewBox="0 0 274.958 136.524">
  <g id="Group_145" data-name="Group 145" transform="translate(0 0)">
    <path id="Rectangle_14" data-name="Rectangle 14" d="M0,0H0A44.478,44.478,0,0,1,44.478,44.478v0a0,0,0,0,1,0,0H0a0,0,0,0,1,0,0V0A0,0,0,0,1,0,0Z" transform="translate(228.521 91.99) rotate(90)" fill="#edeaeb"/>
    <path id="Rectangle_15" data-name="Rectangle 15" d="M0,0H0A44.478,44.478,0,0,1,44.478,44.478v0a0,0,0,0,1,0,0H0a0,0,0,0,1,0,0V0A0,0,0,0,1,0,0Z" transform="translate(274.958 136.467) rotate(180)" fill="#edeaeb"/>
    <path id="Rectangle_16" data-name="Rectangle 16" d="M0,0H44.478a0,0,0,0,1,0,0V0A44.478,44.478,0,0,1,0,44.478H0a0,0,0,0,1,0,0V0A0,0,0,0,1,0,0Z" transform="translate(184.043 90.529) rotate(-90)" fill="#edeaeb"/>
    <path id="Rectangle_17" data-name="Rectangle 17" d="M0,0H44.478a0,0,0,0,1,0,0V0A44.478,44.478,0,0,1,0,44.478H0a0,0,0,0,1,0,0V0A0,0,0,0,1,0,0Z" transform="translate(274.958 90.529) rotate(180)" fill="#edeaeb"/>
    <path id="Rectangle_18" data-name="Rectangle 18" d="M0,0H0A44.478,44.478,0,0,1,44.478,44.478v0a0,0,0,0,1,0,0H0a0,0,0,0,1,0,0V0A0,0,0,0,1,0,0Z" transform="translate(228.521 0) rotate(90)" fill="#edeaeb"/>
    <path id="Rectangle_19" data-name="Rectangle 19" d="M0,0H0A44.478,44.478,0,0,1,44.478,44.478v0a0,0,0,0,1,0,0H0a0,0,0,0,1,0,0V0A0,0,0,0,1,0,0Z" transform="translate(274.958 44.477) rotate(180)" fill="#edeaeb"/>
    <path id="Rectangle_22" data-name="Rectangle 22" d="M0,0H44.478a0,0,0,0,1,0,0V0A44.478,44.478,0,0,1,0,44.478H0a0,0,0,0,1,0,0V0A0,0,0,0,1,0,0Z" transform="translate(0 136.524) rotate(-90)" fill="#edeaeb"/>
    <path id="Rectangle_23" data-name="Rectangle 23" d="M0,0H0A44.478,44.478,0,0,1,44.478,44.478v0a0,0,0,0,1,0,0H0a0,0,0,0,1,0,0V0A0,0,0,0,1,0,0Z" transform="translate(90.915 136.524) rotate(180)" fill="#edeaeb"/>
    <path id="Rectangle_24" data-name="Rectangle 24" d="M0,0H0A44.478,44.478,0,0,1,44.478,44.478v0a0,0,0,0,1,0,0H0a0,0,0,0,1,0,0V0A0,0,0,0,1,0,0Z" transform="translate(44.478 46.108) rotate(90)" fill="#edeaeb"/>
    <path id="Rectangle_25" data-name="Rectangle 25" d="M0,0H44.478a0,0,0,0,1,0,0V0A44.478,44.478,0,0,1,0,44.478H0a0,0,0,0,1,0,0V0A0,0,0,0,1,0,0Z" transform="translate(90.915 90.586) rotate(180)" fill="#edeaeb"/>
    <path id="Rectangle_26" data-name="Rectangle 26" d="M0,0H44.478a0,0,0,0,1,0,0V0A44.478,44.478,0,0,1,0,44.478H0a0,0,0,0,1,0,0V0A0,0,0,0,1,0,0Z" transform="translate(0 44.534) rotate(-90)" fill="#edeaeb"/>
    <path id="Rectangle_27" data-name="Rectangle 27" d="M0,0H0A44.478,44.478,0,0,1,44.478,44.478v0a0,0,0,0,1,0,0H0a0,0,0,0,1,0,0V0A0,0,0,0,1,0,0Z" transform="translate(90.915 44.534) rotate(180)" fill="#edeaeb"/>
    <path id="Rectangle_28" data-name="Rectangle 28" d="M0,0H0A44.478,44.478,0,0,1,44.478,44.478v0a0,0,0,0,1,0,0H0a0,0,0,0,1,0,0V0A0,0,0,0,1,0,0Z" transform="translate(92.178 90.586) rotate(-90)" fill="#edeaeb"/>
    <path id="Rectangle_29" data-name="Rectangle 29" d="M0,0H0A44.478,44.478,0,0,1,44.478,44.478v0a0,0,0,0,1,0,0H0a0,0,0,0,1,0,0V0A0,0,0,0,1,0,0Z" transform="translate(138.113 136.467) rotate(-90)" fill="#edeaeb"/>
    <path id="Rectangle_30" data-name="Rectangle 30" d="M22.239,0H44.478a0,0,0,0,1,0,0V44.478a0,0,0,0,1,0,0H22.239A22.239,22.239,0,0,1,0,22.239v0A22.239,22.239,0,0,1,22.239,0Z" transform="translate(92.592 136.524) rotate(-90)" fill="#edeaeb"/>
    <path id="Rectangle_31" data-name="Rectangle 31" d="M0,0H0A44.478,44.478,0,0,1,44.478,44.478v0a0,0,0,0,1,0,0H0a0,0,0,0,1,0,0V0A0,0,0,0,1,0,0Z" transform="translate(182.591 46.052) rotate(90)" fill="#edeaeb"/>
    <ellipse id="Ellipse_17" data-name="Ellipse 17" cx="20.809" cy="20.809" rx="20.809" ry="20.809" transform="translate(108.226 0.057)" fill="#edeaeb"/>
  </g>
</svg>
