<svg id="Group_143" data-name="Group 143" xmlns="http://www.w3.org/2000/svg" width="52.328" height="53.299" viewBox="0 0 52.328 53.299">
  <g id="Group_23" data-name="Group 23" transform="translate(2.368 2.192)">
    <path id="Path_329" data-name="Path 329" d="M862.381,808.8l-2.423.316c.016-.3.026-.606.026-.9l.849-.114,1.429-.191a.447.447,0,0,1,.5.385.008.008,0,0,1,0,.007A.446.446,0,0,1,862.381,808.8Z" transform="translate(-818.81 -785.368)" fill="#edeaeb"/>
    <path id="Path_330" data-name="Path 330" d="M864.779,819.549v.009a.439.439,0,0,1-.434.448l-5.6.021c.058-.295.107-.592.146-.889l5.449-.011A.436.436,0,0,1,864.779,819.549Z" transform="translate(-817.881 -793.99)" fill="#edeaeb"/>
    <path id="Path_331" data-name="Path 331" d="M863.749,829.955a.449.449,0,0,1-.5.462l-6.952-.842c.1-.29.183-.582.262-.877l6.8.826a.441.441,0,0,1,.39.422A.014.014,0,0,1,863.749,829.955Z" transform="translate(-815.999 -801.339)" fill="#edeaeb"/>
    <path id="Path_332" data-name="Path 332" d="M860.508,840.129s0,0,0,.007a.437.437,0,0,1-.518.267l-7.24-1.81c.13-.272.253-.548.367-.826l7.089,1.773A.444.444,0,0,1,860.508,840.129Z" transform="translate(-813.273 -808.304)" fill="#edeaeb"/>
    <path id="Path_333" data-name="Path 333" d="M855.525,849.424s0,0,0,.007a.441.441,0,0,1-.518.156l-6.755-2.625c.16-.255.313-.513.459-.775l6.621,2.569A.442.442,0,0,1,855.525,849.424Z" transform="translate(-809.817 -814.77)" fill="#edeaeb"/>
    <path id="Path_334" data-name="Path 334" d="M849.277,857.506s0,0,0,.007a.44.44,0,0,1-.573.144l-5.741-3.089c.19-.236.373-.478.55-.721l5.611,3.03A.438.438,0,0,1,849.277,857.506Z" transform="translate(-805.755 -820.653)" fill="#edeaeb"/>
    <path id="Path_335" data-name="Path 335" d="M840.168,863.584l-.007.009a.522.522,0,0,1-.729.125l-2.954-2.114q.379-.376.736-.768l2.831,2.026A.522.522,0,0,1,840.168,863.584Z" transform="translate(-800.779 -826.021)" fill="#edeaeb"/>
    <path id="Path_336" data-name="Path 336" d="M847.066,746.638l-4.37,4.012c-.148-.172-.3-.341-.452-.506-.046-.051-.1-.1-.146-.151l4.367-4.01a.438.438,0,0,1,.617.023.03.03,0,0,0,.007.009A.438.438,0,0,1,847.066,746.638Z" transform="translate(-805.094 -737.731)" fill="#edeaeb"/>
    <path id="Path_337" data-name="Path 337" d="M853.88,757.851l-4.694,3.364q-.223-.379-.478-.745l4.669-3.325a.43.43,0,0,1,.61.118.011.011,0,0,0,0,.007A.429.429,0,0,1,853.88,757.851Z" transform="translate(-810.171 -746.33)" fill="#edeaeb"/>
    <path id="Path_338" data-name="Path 338" d="M858.288,772.116l-4.047,2.212c-.109-.276-.227-.55-.353-.819l3.991-2.147a.427.427,0,0,1,.566.158s0,0,0,.007A.424.424,0,0,1,858.288,772.116Z" transform="translate(-814.148 -757.27)" fill="#edeaeb"/>
    <path id="Path_339" data-name="Path 339" d="M859.2,788.956l-1.474.536c-.065-.292-.137-.582-.218-.87l1.369-.526a.456.456,0,0,1,.606.306.021.021,0,0,1,0,.01A.456.456,0,0,1,859.2,788.956Z" transform="translate(-816.928 -770.135)" fill="#edeaeb"/>
    <path id="Path_340" data-name="Path 340" d="M825.729,875.842l0,0a.452.452,0,0,1-.622-.072l-2.074-2.511c.248-.16.494-.325.738-.5l1,1.2,1.037,1.228A.449.449,0,0,1,825.729,875.842Z" transform="translate(-790.45 -835.183)" fill="#edeaeb"/>
    <path id="Path_341" data-name="Path 341" d="M819.771,883.149l-.009.007a.45.45,0,0,1-.657-.116l-3.4-5.356c.264-.132.527-.272.784-.418l3.384,5.282A.449.449,0,0,1,819.771,883.149Z" transform="translate(-784.828 -838.638)" fill="#edeaeb"/>
    <path id="Path_342" data-name="Path 342" d="M812.061,888.617l-.007,0a.436.436,0,0,1-.6-.2l-3.367-7.129q.418-.157.828-.334l3.337,7.087A.441.441,0,0,1,812.061,888.617Z" transform="translate(-778.977 -841.472)" fill="#edeaeb"/>
    <path id="Path_343" data-name="Path 343" d="M803.428,892.413l-.014,0a.439.439,0,0,1-.545-.283l-2.641-8.066c.288-.072.571-.153.854-.241l2.624,8.031A.436.436,0,0,1,803.428,892.413Z" transform="translate(-772.941 -843.676)" fill="#edeaeb"/>
    <path id="Path_344" data-name="Path 344" d="M794.264,894.337h-.01a.433.433,0,0,1-.505-.341l-1.571-8.02c.295-.042.587-.091.879-.148l1.55,8A.437.437,0,0,1,794.264,894.337Z" transform="translate(-766.759 -845.212)" fill="#edeaeb"/>
    <path id="Path_345" data-name="Path 345" d="M785.407,893.914a.434.434,0,0,1-.417.464h-.007a.438.438,0,0,1-.45-.406l-.464-6.964c.295-.01.59-.026.882-.051Z" transform="translate(-760.531 -846.079)" fill="#edeaeb"/>
    <path id="Path_346" data-name="Path 346" d="M775.9,887.046l-.288,4.859a.43.43,0,0,1-.487.4h-.007a.43.43,0,0,1-.367-.448l.272-4.857C775.318,887.023,775.61,887.036,775.9,887.046Z" transform="translate(-753.379 -846.11)" fill="#edeaeb"/>
    <path id="Path_347" data-name="Path 347" d="M768.265,886.11l-.29,1.576a.345.345,0,0,1-.4.279l-.007,0a.345.345,0,0,1-.285-.395c.074-.462.2-1.272.239-1.58C767.768,886.033,768.014,886.075,768.265,886.11Z" transform="translate(-747.638 -845.335)" fill="#edeaeb"/>
    <path id="Path_348" data-name="Path 348" d="M759.946,884.043c-.06.148-.174.436-.264.666a.4.4,0,0,1-.495.232l-.009,0a.4.4,0,0,1-.26-.5l.2-.641C759.393,883.887,759.667,883.969,759.946,884.043Z" transform="translate(-741.202 -843.653)" fill="#edeaeb"/>
    <path id="Path_349" data-name="Path 349" d="M748.436,881.094l-1.392,2.959a.423.423,0,0,1-.543.214s-.007,0-.012,0a.425.425,0,0,1-.223-.571l1.362-2.954C747.893,880.867,748.162,880.985,748.436,881.094Z" transform="translate(-731.471 -841.303)" fill="#edeaeb"/>
    <path id="Path_350" data-name="Path 350" d="M736.763,877.187l-2.68,4.312a.438.438,0,0,1-.6.144l-.007,0a.444.444,0,0,1-.144-.61l2.675-4.3Q736.376,876.971,736.763,877.187Z" transform="translate(-721.514 -838.223)" fill="#edeaeb"/>
    <path id="Path_351" data-name="Path 351" d="M726.1,872.382l-3.871,4.743a.435.435,0,0,1-.629.046.028.028,0,0,1-.01-.007.436.436,0,0,1-.044-.6l3.857-4.739C725.627,872.02,725.859,872.205,726.1,872.382Z" transform="translate(-712.439 -834.461)" fill="#edeaeb"/>
    <path id="Path_352" data-name="Path 352" d="M717.587,866.745l-4.581,4.386a.437.437,0,0,1-.613-.007l-.009-.007a.439.439,0,0,1,.007-.627l4.578-4.384.132.144C717.26,866.42,717.423,866.585,717.587,866.745Z" transform="translate(-705.383 -830.068)" fill="#edeaeb"/>
    <path id="Path_353" data-name="Path 353" d="M711.105,860.352l-4.917,3.655a.436.436,0,0,1-.631-.125s0,0,0-.007a.432.432,0,0,1,.114-.571l4.908-3.666C710.743,859.881,710.922,860.12,711.105,860.352Z" transform="translate(-700.187 -825.099)" fill="#edeaeb"/>
    <path id="Path_354" data-name="Path 354" d="M708.028,853.364l-4.472,2.52a.441.441,0,0,1-.612-.19s0,0,0-.007a.443.443,0,0,1,.178-.58l4.474-2.52C707.729,852.851,707.872,853.109,708.028,853.364Z" transform="translate(-698.193 -819.685)" fill="#edeaeb"/>
    <path id="Path_355" data-name="Path 355" d="M709.65,845.868l-2.859,1.174a.468.468,0,0,1-.629-.318.015.015,0,0,1,0-.009.465.465,0,0,1,.281-.548l2.877-1.13C709.42,845.318,709.529,845.594,709.65,845.868Z" transform="translate(-700.69 -813.887)" fill="#edeaeb"/>
    <path id="Path_356" data-name="Path 356" d="M715.186,838.292l-.5.135a.382.382,0,0,1-.453-.22s0-.007,0-.009a.382.382,0,0,1,.232-.51c.177-.058.378-.123.522-.17C715.044,837.779,715.111,838.037,715.186,838.292Z" transform="translate(-706.876 -808.112)" fill="#edeaeb"/>
    <path id="Path_357" data-name="Path 357" d="M701.72,821.733l-1.764.023-2.1-.025a.41.41,0,0,1-.406-.39c0-.007,0-.014,0-.018a.413.413,0,0,1,.408-.418l3.852-.058C701.7,821.144,701.706,821.441,701.72,821.733Z" transform="translate(-694.011 -795.311)" fill="#edeaeb"/>
    <path id="Path_358" data-name="Path 358" d="M693.082,810.215c-.035.276-.065.552-.086.828,0,.019,0,.039,0,.058l-6.581-.768a.421.421,0,0,1-.369-.455.118.118,0,0,1,0-.012.42.42,0,0,1,.464-.378Z" transform="translate(-685.251 -786.586)" fill="#edeaeb"/>
    <path id="Path_359" data-name="Path 359" d="M690.813,798.457c-.07.29-.132.582-.186.877l-7.649-1.829a.445.445,0,0,1-.334-.508s0-.007,0-.009a.442.442,0,0,1,.538-.353Z" transform="translate(-682.638 -776.708)" fill="#edeaeb"/>
    <path id="Path_360" data-name="Path 360" d="M692.674,786.938c-.1.276-.193.557-.276.838l-7.762-2.922a.439.439,0,0,1-.262-.55s0-.007,0-.009a.438.438,0,0,1,.569-.269Z" transform="translate(-683.953 -767.013)" fill="#edeaeb"/>
    <path id="Path_361" data-name="Path 361" d="M698.155,776.685c-.13.265-.251.534-.367.8l-7.043-3.713a.431.431,0,0,1-.183-.578s0,0,0-.007a.432.432,0,0,1,.582-.186Z" transform="translate(-688.687 -758.535)" fill="#edeaeb"/>
    <path id="Path_362" data-name="Path 362" d="M706.779,768.508c-.16.251-.311.506-.452.764l-5.63-3.961a.428.428,0,0,1-.111-.585s0-.007,0-.01a.431.431,0,0,1,.6-.114Z" transform="translate(-696.366 -752.059)" fill="#edeaeb"/>
    <path id="Path_363" data-name="Path 363" d="M720.069,765.624c-.181.234-.36.474-.531.715l-3.047-2.75a.412.412,0,0,1-.051-.555.045.045,0,0,1,.007-.009.41.41,0,0,1,.6-.058Z" transform="translate(-708.531 -750.783)" fill="#edeaeb"/>
    <path id="Path_364" data-name="Path 364" d="M735.321,767.952q-.285.292-.552.6l-.009-.012,0,0-.077-.086a.4.4,0,0,1,0-.524.1.1,0,0,0,.007-.01.4.4,0,0,1,.583-.018Z" transform="translate(-722.526 -754.557)" fill="#edeaeb"/>
    <path id="Path_365" data-name="Path 365" d="M741.443,741.382c-.246.165-.49.334-.731.515l-1.258-2.516a.008.008,0,0,0,0-.012l-1.009-2.1a.424.424,0,0,1,.2-.569l.014,0a.423.423,0,0,1,.552.2Z" transform="translate(-725.464 -730.662)" fill="#edeaeb"/>
    <path id="Path_366" data-name="Path 366" d="M748.456,728.58c-.265.137-.527.278-.785.429l-2.464-7.036a.443.443,0,0,1,.264-.561.009.009,0,0,0,.007,0,.443.443,0,0,1,.569.269Z" transform="translate(-730.668 -718.928)" fill="#edeaeb"/>
    <path id="Path_367" data-name="Path 367" d="M759.361,721.378c-.281.1-.559.216-.836.337l-1.708-8.052a.4.4,0,0,1-.009-.088.427.427,0,0,1,.844-.09Z" transform="translate(-739.596 -712.603)" fill="#edeaeb"/>
    <path id="Path_368" data-name="Path 368" d="M771.7,718.937c-.292.067-.583.144-.87.232l-.689-7.887a.441.441,0,0,1,.415-.478h.009a.442.442,0,0,1,.471.4Z" transform="translate(-749.835 -710.802)" fill="#edeaeb"/>
    <path id="Path_369" data-name="Path 369" d="M783.749,714.784l-.26,6.47q-.449.045-.891.118l.248-6.623a.451.451,0,0,1,.513-.427s0,0,.009,0A.443.443,0,0,1,783.749,714.784Z" transform="translate(-759.402 -713.502)" fill="#edeaeb"/>
    <path id="Path_370" data-name="Path 370" d="M793.945,724.753l-.6,4.066c-.218-.007-.439-.009-.659-.007-.079,0-.155,0-.234,0l.682-4.191a.406.406,0,0,1,.469-.336h.007A.408.408,0,0,1,793.945,724.753Z" transform="translate(-766.966 -721.155)" fill="#edeaeb"/>
    <path id="Path_371" data-name="Path 371" d="M824.64,738.255l-1.508,2.525c-.26-.137-.525-.267-.794-.388l.956-1.608.576-.982a.443.443,0,0,1,.534-.193l.007,0A.443.443,0,0,1,824.64,738.255Z" transform="translate(-789.92 -731.369)" fill="#edeaeb"/>
    <path id="Path_372" data-name="Path 372" d="M835.726,736.871l-3.246,4.165q-.352-.272-.722-.52l3.27-4.188a.439.439,0,0,1,.571-.107l.007,0A.439.439,0,0,1,835.726,736.871Z" transform="translate(-797.154 -730.275)" fill="#edeaeb"/>
  </g>
  <g id="Group_24" data-name="Group 24" transform="translate(10.502 10.326)">
    <path id="Path_373" data-name="Path 373" d="M842.019,802.585l-2.264.592c-.009-.127-.074-.85-.085-.9l2.109-.583a.457.457,0,0,1,.564.323l0,.009A.458.458,0,0,1,842.019,802.585Z" transform="translate(-811.364 -788.723)" fill="#edeaeb"/>
    <path id="Path_374" data-name="Path 374" d="M844.14,809.467c0,.3-.012.606-.03.91l-4.212.538c.028-.308.044-.606.049-.9Z" transform="translate(-811.539 -794.706)" fill="#edeaeb"/>
    <path id="Path_375" data-name="Path 375" d="M843.082,819.177c-.042.3-.09.6-.151.893l-4.193.014c.065-.295.125-.6.167-.893Z" transform="translate(-810.648 -802.163)" fill="#edeaeb"/>
    <path id="Path_376" data-name="Path 376" d="M841.012,826.854c-.082.292-.169.582-.267.87l-4.117-.492c.1-.293.2-.58.281-.875Z" transform="translate(-809.028 -807.677)" fill="#edeaeb"/>
    <path id="Path_377" data-name="Path 377" d="M838.077,834c-.116.281-.241.557-.373.831l-3.975-1c.139-.267.276-.541.392-.821Z" transform="translate(-806.801 -812.784)" fill="#edeaeb"/>
    <path id="Path_378" data-name="Path 378" d="M834.379,840.656c-.148.263-.306.522-.469.778l-3.782-1.467c.178-.255.339-.515.492-.771Z" transform="translate(-804.036 -817.537)" fill="#edeaeb"/>
    <path id="Path_379" data-name="Path 379" d="M830.1,846.671c-.178.244-.362.483-.555.719l-3.536-1.91c.2-.227.394-.469.578-.7Z" transform="translate(-800.873 -821.822)" fill="#edeaeb"/>
    <path id="Path_380" data-name="Path 380" d="M825.225,852.122q-.358.4-.745.775l-3.142-2.39c.23-.218.453-.446.668-.68Z" transform="translate(-797.286 -825.701)" fill="#edeaeb"/>
    <path id="Path_381" data-name="Path 381" d="M830.712,765.592l-3.212,2.949c-.183-.232-.376-.455-.582-.671l3.2-2.933c.026.023.051.046.074.072s.051.054.077.079c.079.086.158.172.234.258S830.643,765.508,830.712,765.592Z" transform="translate(-801.571 -760.51)" fill="#edeaeb"/>
    <path id="Path_382" data-name="Path 382" d="M835.848,773.587l-3.583,2.548c-.141-.258-.295-.511-.457-.757l3.564-2.532C835.539,773.088,835.7,773.337,835.848,773.587Z" transform="translate(-805.326 -766.584)" fill="#edeaeb"/>
    <path id="Path_383" data-name="Path 383" d="M839.8,782.5l-3.847,2.063a8.712,8.712,0,0,0-.362-.812l3.857-2.07C839.572,781.946,839.688,782.218,839.8,782.5Z" transform="translate(-808.229 -773.365)" fill="#edeaeb"/>
    <path id="Path_384" data-name="Path 384" d="M842.612,792.025l-4.035,1.555c-.058-.3-.128-.582-.209-.868l4.028-1.555C842.478,791.445,842.549,791.733,842.612,792.025Z" transform="translate(-810.364 -780.645)" fill="#edeaeb"/>
    <path id="Path_385" data-name="Path 385" d="M819.812,857.381c-.225.2-.457.39-.691.576l-.337-.32-2.506-2.362c.241-.172.48-.357.715-.548Z" transform="translate(-793.4 -829.464)" fill="#edeaeb"/>
    <path id="Path_386" data-name="Path 386" d="M814.326,861.4c-.246.174-.494.341-.745.5l-2.483-3c.111-.065.22-.132.33-.2.06-.035.118-.072.176-.112.084-.051.162-.107.246-.165a.019.019,0,0,1,.009,0Z" transform="translate(-789.423 -832.289)" fill="#edeaeb"/>
    <path id="Path_387" data-name="Path 387" d="M808.56,864.867c-.262.149-.527.288-.794.422l-2.088-3.281c.274-.123.541-.257.805-.4Z" transform="translate(-785.26 -834.747)" fill="#edeaeb"/>
    <path id="Path_388" data-name="Path 388" d="M802.624,867.684c-.271.116-.543.225-.819.329l-1.657-3.516v0c.281-.092.559-.195.833-.308Z" transform="translate(-781.013 -836.728)" fill="#edeaeb"/>
    <path id="Path_389" data-name="Path 389" d="M796.476,869.824c-.283.088-.566.167-.852.241l-1.216-3.708c.292-.063.58-.135.866-.221Z" transform="translate(-776.605 -838.226)" fill="#edeaeb"/>
    <path id="Path_390" data-name="Path 390" d="M790.238,871.3c-.286.058-.575.107-.866.146l-.745-3.85c.127-.011.253-.028.38-.044.167-.023.334-.049.5-.079Z" transform="translate(-772.167 -839.255)" fill="#edeaeb"/>
    <path id="Path_391" data-name="Path 391" d="M783.939,872.1c-.292.026-.585.044-.879.051l-.262-3.943h.1c.26,0,.52-.009.78-.026Z" transform="translate(-767.69 -839.8)" fill="#edeaeb"/>
    <path id="Path_392" data-name="Path 392" d="M777.115,867.991l-.229,3.961c-.295-.009-.587-.024-.877-.047l.237-3.989C776.533,867.952,776.823,867.977,777.115,867.991Z" transform="translate(-762.475 -839.593)" fill="#edeaeb"/>
    <path id="Path_393" data-name="Path 393" d="M769.709,867.018l-.736,3.952c-.295-.042-.585-.09-.875-.148l.747-3.984C769.129,866.909,769.419,866.969,769.709,867.018Z" transform="translate(-756.401 -838.763)" fill="#edeaeb"/>
    <path id="Path_394" data-name="Path 394" d="M762.536,865.375l-1.237,3.887c-.287-.074-.571-.16-.851-.253l1.244-3.922C761.968,865.194,762.251,865.291,762.536,865.375Z" transform="translate(-750.526 -837.419)" fill="#edeaeb"/>
    <path id="Path_395" data-name="Path 395" d="M755.6,863.07l-1.729,3.764c-.276-.109-.548-.23-.814-.36l1.752-3.787C755.068,862.826,755.332,862.956,755.6,863.07Z" transform="translate(-744.851 -835.576)" fill="#edeaeb"/>
    <path id="Path_396" data-name="Path 396" d="M749.06,860.14l-2.223,3.56c-.258-.141-.51-.295-.759-.457l2.239-3.585C748.559,859.828,748.807,859.991,749.06,860.14Z" transform="translate(-739.491 -833.249)" fill="#edeaeb"/>
    <path id="Path_397" data-name="Path 397" d="M743.052,856.648l-2.68,3.293c-.237-.176-.469-.359-.694-.554l2.692-3.309.065.056s0,0,0,0c.1.091.2.179.3.265S742.948,856.567,743.052,856.648Z" transform="translate(-734.576 -830.5)" fill="#edeaeb"/>
    <path id="Path_398" data-name="Path 398" d="M737.641,852.648l-3.1,2.961c-.162-.158-.32-.318-.476-.485-.046-.051-.1-.1-.139-.153l3.1-2.963a1.974,1.974,0,0,0,.144.169C737.321,852.339,737.478,852.5,737.641,852.648Z" transform="translate(-730.16 -827.375)" fill="#edeaeb"/>
    <path id="Path_399" data-name="Path 399" d="M732.915,848.212l-3.448,2.557c-.183-.232-.362-.471-.529-.715l3.442-2.557A7.362,7.362,0,0,0,732.915,848.212Z" transform="translate(-726.328 -823.911)" fill="#edeaeb"/>
    <path id="Path_400" data-name="Path 400" d="M728.952,843.375l-3.731,2.1c-.153-.253-.3-.513-.431-.775l3.724-2.1A8.775,8.775,0,0,0,728.952,843.375Z" transform="translate(-723.142 -820.156)" fill="#edeaeb"/>
    <path id="Path_401" data-name="Path 401" d="M725.856,838.186l-3.954,1.624q-.181-.407-.334-.828l3.945-1.615A7.091,7.091,0,0,0,725.856,838.186Z" transform="translate(-720.668 -816.132)" fill="#edeaeb"/>
    <path id="Path_402" data-name="Path 402" d="M723.642,832.73l-4.091,1.114c-.084-.285-.158-.571-.223-.863a6.945,6.945,0,0,1,.924-.257l.007,0,3.156-.851C723.477,832.159,723.554,832.449,723.642,832.73Z" transform="translate(-718.948 -811.908)" fill="#edeaeb"/>
    <path id="Path_403" data-name="Path 403" d="M722.275,827.131l-3.727.606a.492.492,0,0,1-.476-.193.469.469,0,0,1-.1-.225.487.487,0,0,1-.007-.079.48.48,0,0,1,.039-.19.492.492,0,0,1,.395-.3l3.736-.5C722.154,826.423,722.259,827.062,722.275,827.131Z" transform="translate(-717.904 -807.592)" fill="#edeaeb"/>
    <path id="Path_404" data-name="Path 404" d="M721.886,821.434l-4.182.056c-.012-.295-.016-.59-.012-.887l4.163-.056A8.015,8.015,0,0,0,721.886,821.434Z" transform="translate(-717.69 -803.215)" fill="#edeaeb"/>
    <path id="Path_405" data-name="Path 405" d="M722.074,813.3c-.037.3-.056.6-.067.884l-4.119-.452c0-.026,0-.054,0-.079.021-.271.049-.54.084-.81Z" transform="translate(-717.842 -797.302)" fill="#edeaeb"/>
    <path id="Path_406" data-name="Path 406" d="M723.079,805.941c-.063.285-.118.578-.156.88l-4.005-.961c.051-.292.114-.585.183-.872Z" transform="translate(-718.633 -791.266)" fill="#edeaeb"/>
    <path id="Path_407" data-name="Path 407" d="M724.88,798.762c-.1.285-.174.571-.248.856l-3.834-1.445q.129-.422.278-.836Z" transform="translate(-720.077 -785.391)" fill="#edeaeb"/>
    <path id="Path_408" data-name="Path 408" d="M727.493,791.773c-.125.272-.237.543-.344.821l-3.6-1.9q.171-.407.367-.807Z" transform="translate(-722.189 -779.67)" fill="#edeaeb"/>
    <path id="Path_409" data-name="Path 409" d="M730.861,785.074c-.088.153-.169.309-.248.466a.046.046,0,0,0-.014.023c-.054.1-.107.2-.158.295l-3.323-2.323c.144-.256.292-.508.448-.759Z" transform="translate(-724.93 -774.21)" fill="#edeaeb"/>
    <path id="Path_410" data-name="Path 410" d="M734.958,778.7c-.176.246-.341.5-.5.754l-2.991-2.7c.171-.244.35-.483.534-.717Z" transform="translate(-728.271 -769.034)" fill="#edeaeb"/>
    <path id="Path_411" data-name="Path 411" d="M739.82,772.854c-.063.074-.128.148-.19.225-.13.156-.258.313-.378.473l-2.613-3.028c.183-.209.371-.415.566-.617l1.186,1.29.007.007.035.039Z" transform="translate(-732.241 -764.326)" fill="#edeaeb"/>
    <path id="Path_412" data-name="Path 412" d="M745.475,767.79c-.221.2-.434.416-.64.636l-2.088-2.952a.488.488,0,0,1,.12-.68l.009-.007a.477.477,0,0,1,.216-.084.488.488,0,0,1,.469.214Z" transform="translate(-736.864 -760.327)" fill="#edeaeb"/>
    <path id="Path_413" data-name="Path 413" d="M751.679,762.213c-.241.179-.478.365-.708.562l-1.763-3.55c.239-.179.483-.35.729-.517Z" transform="translate(-741.894 -755.725)" fill="#edeaeb"/>
    <path id="Path_414" data-name="Path 414" d="M758.627,757.884c-.265.148-.522.309-.775.478l-1.313-3.736q.121-.073.243-.139c.053-.033.107-.063.16-.091.128-.072.258-.142.387-.209Z" transform="translate(-747.524 -752.254)" fill="#edeaeb"/>
    <path id="Path_415" data-name="Path 415" d="M766.277,754.407c-.278.119-.555.244-.824.381l-.835-3.866c.274-.118.557-.232.838-.334Z" transform="translate(-753.728 -749.49)" fill="#edeaeb"/>
    <path id="Path_416" data-name="Path 416" d="M774.512,751.792c-.29.079-.575.167-.858.267l-.346-3.947c.293-.088.578-.172.87-.234Z" transform="translate(-760.401 -747.408)" fill="#edeaeb"/>
    <path id="Path_417" data-name="Path 417" d="M782.9,746.3l-.144,3.947a.656.656,0,0,0-.067.007c-.279.037-.555.086-.831.141l.151-3.977C782.3,746.367,782.6,746.323,782.9,746.3Z" transform="translate(-766.968 -746.195)" fill="#edeaeb"/>
    <path id="Path_418" data-name="Path 418" d="M790.833,745.874l-.643,3.931q-.452-.007-.912.021l.65-3.954A6.982,6.982,0,0,1,790.833,745.874Z" transform="translate(-772.666 -745.858)" fill="#edeaeb"/>
    <path id="Path_419" data-name="Path 419" d="M798.809,747.086l-.944,3.425c-.292-.051-.589-.088-.887-.116l1.037-3.534a.406.406,0,0,1,.464-.285l.012,0A.406.406,0,0,1,798.809,747.086Z" transform="translate(-778.579 -746.404)" fill="#edeaeb"/>
    <path id="Path_420" data-name="Path 420" d="M806.878,749.47l-1.411,3.235c-.283-.1-.569-.186-.859-.258.286-.661,1.093-2.522,1.446-3.337a.443.443,0,0,1,.571-.237.01.01,0,0,1,.007,0A.448.448,0,0,1,806.878,749.47Z" transform="translate(-784.438 -748.15)" fill="#edeaeb"/>
    <path id="Path_421" data-name="Path 421" d="M814.971,751.875l-2.146,3.606c-.26-.144-.527-.276-.8-.394l2.137-3.59A8.728,8.728,0,0,1,814.971,751.875Z" transform="translate(-790.136 -750.189)" fill="#edeaeb"/>
    <path id="Path_422" data-name="Path 422" d="M822.6,757.032l-2.631,3.374c-.23-.186-.467-.362-.708-.527l2.613-3.362C822.117,756.677,822.361,756.851,822.6,757.032Z" transform="translate(-795.689 -754.044)" fill="#edeaeb"/>
  </g>
  <g id="Group_25" data-name="Group 25" transform="translate(15.182 14.77)">
    <path id="Path_423" data-name="Path 423" d="M833.6,805.725l-1.2.309c-.012-.3-.033-.6-.067-.894l1.2-.313C833.56,805.122,833.586,805.423,833.6,805.725Z" transform="translate(-810.406 -795.587)" fill="#edeaeb"/>
    <path id="Path_424" data-name="Path 424" d="M833.64,812.117c-.007.3-.023.6-.051.9l-1.221.16a8.452,8.452,0,0,0,.06-.9Z" transform="translate(-810.436 -801.185)" fill="#edeaeb"/>
    <path id="Path_425" data-name="Path 425" d="M832.6,819.247c-.049.3-.107.6-.176.891l-1.218.007c.074-.288.139-.585.188-.886Z" transform="translate(-809.546 -806.66)" fill="#edeaeb"/>
    <path id="Path_426" data-name="Path 426" d="M830.717,825.588q-.132.439-.295.87l-1.2-.146c.116-.292.214-.58.306-.875Z" transform="translate(-808.018 -811.414)" fill="#edeaeb"/>
    <path id="Path_427" data-name="Path 427" d="M828.091,831.522q-.177.415-.39.819l-1.193-.293c.153-.267.295-.548.418-.822Z" transform="translate(-805.936 -815.86)" fill="#edeaeb"/>
    <path id="Path_428" data-name="Path 428" d="M824.892,837c-.151.26-.313.515-.483.766l-1.151-.455c.179-.239.353-.5.506-.754Z" transform="translate(-803.441 -819.953)" fill="#edeaeb"/>
    <path id="Path_429" data-name="Path 429" d="M821.2,841.9c-.148.2-.3.4-.466.594-.032.039-.065.079-.1.116l-1.111-.592c.215-.227.413-.462.6-.7Z" transform="translate(-800.569 -823.617)" fill="#edeaeb"/>
    <path id="Path_430" data-name="Path 430" d="M817.141,846.321c-.216.232-.436.455-.666.666l-1.007-.766c.119-.1.235-.209.346-.313s.216-.2.32-.311Z" transform="translate(-797.458 -826.896)" fill="#edeaeb"/>
    <path id="Path_431" data-name="Path 431" d="M822.768,779.52l-1.005.924c-.183-.23-.378-.453-.585-.666l1.014-.93C822.394,779.063,822.586,779.288,822.768,779.52Z" transform="translate(-801.843 -775.636)" fill="#edeaeb"/>
    <path id="Path_432" data-name="Path 432" d="M827.076,785.608l-1.1.782c-.139-.26-.292-.513-.457-.759l1.1-.784C826.784,785.093,826.934,785.346,827.076,785.608Z" transform="translate(-805.177 -780.243)" fill="#edeaeb"/>
    <path id="Path_433" data-name="Path 433" d="M830.348,792.353l-1.146.613a7.209,7.209,0,0,0-.344-.819l1.165-.629C830.144,791.789,830.253,792.067,830.348,792.353Z" transform="translate(-807.741 -785.365)" fill="#edeaeb"/>
    <path id="Path_434" data-name="Path 434" d="M832.607,799.509l-1.16.448c-.056-.3-.125-.582-.209-.87l1.179-.459C832.493,798.917,832.556,799.21,832.607,799.509Z" transform="translate(-809.569 -790.826)" fill="#edeaeb"/>
    <path id="Path_435" data-name="Path 435" d="M812.592,850.632c-.23.195-.462.383-.7.559l-.891-.84a7.2,7.2,0,0,0,.727-.534Z" transform="translate(-794.025 -830.136)" fill="#edeaeb"/>
    <path id="Path_436" data-name="Path 436" d="M808.018,853.844c-.246.169-.5.33-.754.478l-.8-.958a7.471,7.471,0,0,0,.773-.457Z" transform="translate(-790.547 -832.509)" fill="#edeaeb"/>
    <path id="Path_437" data-name="Path 437" d="M803.235,856.549c-.264.144-.534.278-.808.4l-.68-1.075a8.8,8.8,0,0,0,.819-.367Z" transform="translate(-786.922 -834.506)" fill="#edeaeb"/>
    <path id="Path_438" data-name="Path 438" d="M798.323,858.678c-.274.111-.552.213-.833.306l-.552-1.174a8.2,8.2,0,0,0,.847-.283Z" transform="translate(-783.228 -836.057)" fill="#edeaeb"/>
    <path id="Path_439" data-name="Path 439" d="M793.322,860.287c-.286.084-.576.156-.866.218l-.409-1.26c.29-.051.582-.114.873-.188Z" transform="translate(-779.473 -837.232)" fill="#edeaeb"/>
    <path id="Path_440" data-name="Path 440" d="M788.311,861.357c-.158.028-.316.054-.473.074-.135.018-.269.035-.4.046l-.255-1.323c.295-.019.592-.051.882-.088Z" transform="translate(-775.733 -838.008)" fill="#edeaeb"/>
    <path id="Path_441" data-name="Path 441" d="M783.253,861.83q-.445.028-.884.021l-.09-1.374a5.874,5.874,0,0,0,.884.007Z" transform="translate(-771.97 -838.323)" fill="#edeaeb"/>
    <path id="Path_442" data-name="Path 442" d="M778.076,860.145l-.088,1.371q-.439-.021-.87-.077l.083-1.383A8.342,8.342,0,0,0,778.076,860.145Z" transform="translate(-768.008 -838)" fill="#edeaeb"/>
    <path id="Path_443" data-name="Path 443" d="M772.753,859.263l-.253,1.364c-.295-.049-.585-.109-.872-.181l.255-1.369c.072.019.144.037.216.053l.039.009A6.233,6.233,0,0,0,772.753,859.263Z" transform="translate(-763.792 -837.248)" fill="#edeaeb"/>
    <path id="Path_444" data-name="Path 444" d="M767.643,857.908l-.42,1.321c-.285-.083-.569-.181-.845-.288l.423-1.313C767.074,857.734,767.357,857.827,767.643,857.908Z" transform="translate(-759.76 -836.134)" fill="#edeaeb"/>
    <path id="Path_445" data-name="Path 445" d="M762.764,856.015l-.575,1.249q-.407-.178-.8-.39l.571-1.237A8.7,8.7,0,0,0,762.764,856.015Z" transform="translate(-755.928 -834.606)" fill="#edeaeb"/>
    <path id="Path_446" data-name="Path 446" d="M758.182,853.613l-.722,1.149c-.253-.151-.5-.313-.743-.485l.71-1.139A8.738,8.738,0,0,0,758.182,853.613Z" transform="translate(-752.341 -832.686)" fill="#edeaeb"/>
    <path id="Path_447" data-name="Path 447" d="M753.993,850.756l-.845,1.035c-.1-.081-.2-.16-.3-.243-.13-.107-.255-.218-.378-.33l.838-1.021A8.614,8.614,0,0,0,753.993,850.756Z" transform="translate(-749.078 -830.428)" fill="#edeaeb"/>
    <path id="Path_448" data-name="Path 448" d="M750.243,847.445l-.951.905c-.211-.209-.414-.427-.6-.652l.938-.891c.16.183.327.36.5.531C750.166,847.376,750.2,847.41,750.243,847.445Z" transform="translate(-746.175 -827.825)" fill="#edeaeb"/>
    <path id="Path_449" data-name="Path 449" d="M746.958,843.709l-1.037.763c-.183-.234-.357-.476-.522-.726l1.017-.759C746.582,843.235,746.765,843.477,746.958,843.709Z" transform="translate(-743.648 -824.891)" fill="#edeaeb"/>
    <path id="Path_450" data-name="Path 450" d="M744.24,839.68l-1.1.617c-.153-.253-.295-.51-.425-.778l1.074-.612C743.929,839.172,744.078,839.429,744.24,839.68Z" transform="translate(-741.59 -821.758)" fill="#edeaeb"/>
    <path id="Path_451" data-name="Path 451" d="M742.079,835.376l-1.142.469c-.121-.272-.23-.548-.329-.828l1.118-.46A8.224,8.224,0,0,0,742.079,835.376Z" transform="translate(-739.97 -818.418)" fill="#edeaeb"/>
    <path id="Path_452" data-name="Path 452" d="M740.49,830.813l-1.16.313c-.088-.281-.167-.566-.232-.859l1.142-.311Q740.344,830.392,740.49,830.813Z" transform="translate(-738.81 -814.885)" fill="#edeaeb"/>
    <path id="Path_453" data-name="Path 453" d="M739.49,826.117l-1.169.162c-.054-.288-.1-.58-.132-.875l1.151-.167C739.376,825.534,739.427,825.829,739.49,826.117Z" transform="translate(-738.112 -811.26)" fill="#edeaeb"/>
    <path id="Path_454" data-name="Path 454" d="M739.06,821.316l-1.163.014c-.011-.144-.021-.29-.028-.436s-.011-.3-.011-.448l1.149-.019C739.011,820.726,739.028,821.023,739.06,821.316Z" transform="translate(-737.858 -807.567)" fill="#edeaeb"/>
    <path id="Path_455" data-name="Path 455" d="M739.056,815.153c-.018.2-.03.4-.037.6,0,.1-.007.2,0,.295l-1.146-.125c.007-.3.026-.6.053-.9Z" transform="translate(-737.866 -803.42)" fill="#edeaeb"/>
    <path id="Path_456" data-name="Path 456" d="M739.539,809.849c-.058.29-.1.58-.135.875l-1.116-.262q.055-.442.146-.884Z" transform="translate(-738.189 -799.234)" fill="#edeaeb"/>
    <path id="Path_457" data-name="Path 457" d="M740.588,804.609c-.088.283-.165.571-.225.861l-1.074-.4q.1-.435.237-.863Z" transform="translate(-738.957 -795.11)" fill="#edeaeb"/>
    <path id="Path_458" data-name="Path 458" d="M742.2,799.466c-.118.276-.225.555-.318.838l-1.016-.541c.1-.279.2-.555.32-.826Z" transform="translate(-740.169 -791.064)" fill="#edeaeb"/>
    <path id="Path_459" data-name="Path 459" d="M744.4,794.428c-.144.26-.278.524-.4.8l-.949-.666c.125-.267.26-.531.406-.791Z" transform="translate(-741.844 -787.093)" fill="#edeaeb"/>
    <path id="Path_460" data-name="Path 460" d="M747.153,789.581c-.172.248-.334.5-.485.757l-.87-.789c.153-.255.315-.506.489-.752Z" transform="translate(-743.956 -783.276)" fill="#edeaeb"/>
    <path id="Path_461" data-name="Path 461" d="M750.5,784.97c-.2.225-.385.46-.562.7l-.78-.9c.134-.179.274-.355.42-.529.046-.056.095-.111.144-.167Z" transform="translate(-746.536 -779.644)" fill="#edeaeb"/>
    <path id="Path_462" data-name="Path 462" d="M754.419,780.631c-.141.13-.279.265-.413.4-.077.079-.151.158-.225.239l-.673-1.019c.207-.223.418-.436.638-.638Z" transform="translate(-749.569 -776.227)" fill="#edeaeb"/>
    <path id="Path_463" data-name="Path 463" d="M758.94,776.651c-.241.181-.478.371-.708.573l-.555-1.121c.23-.2.464-.388.705-.566Z" transform="translate(-753.079 -773.093)" fill="#edeaeb"/>
    <path id="Path_464" data-name="Path 464" d="M764.013,773.141q-.393.23-.768.487l-.427-1.2q.379-.261.778-.487Z" transform="translate(-757.026 -770.329)" fill="#edeaeb"/>
    <path id="Path_465" data-name="Path 465" d="M769.7,770.244c-.12.051-.241.1-.359.16-.156.072-.309.149-.462.228l-.279-1.276c.109-.058.218-.111.33-.165.028-.014.056-.025.083-.04q.206-.09.418-.174Z" transform="translate(-761.465 -768.056)" fill="#edeaeb"/>
    <path id="Path_466" data-name="Path 466" d="M775.94,768.084c-.292.081-.582.176-.866.283l-.116-1.316c.286-.1.573-.19.866-.264Z" transform="translate(-766.349 -766.374)" fill="#edeaeb"/>
    <path id="Path_467" data-name="Path 467" d="M782.522,765.427l-.051,1.309c-.3.042-.6.1-.893.162l.046-1.32A8.921,8.921,0,0,1,782.522,765.427Z" transform="translate(-771.433 -765.33)" fill="#edeaeb"/>
    <path id="Path_468" data-name="Path 468" d="M789.121,765.007l-.209,1.3c-.225,0-.452.007-.68.021l-.234.016.218-1.316C788.518,765.007,788.82,765.007,789.121,765.007Z" transform="translate(-776.363 -765.007)" fill="#edeaeb"/>
    <path id="Path_469" data-name="Path 469" d="M795.967,765.252l-.381,1.292c-.295-.046-.594-.079-.9-.1l.385-1.288C795.368,765.175,795.667,765.213,795.967,765.252Z" transform="translate(-781.5 -765.122)" fill="#edeaeb"/>
    <path id="Path_470" data-name="Path 470" d="M802.834,766.547l-.557,1.26c-.281-.1-.568-.174-.859-.241l.552-1.249C802.267,766.38,802.548,766.461,802.834,766.547Z" transform="translate(-786.669 -766.013)" fill="#edeaeb"/>
    <path id="Path_471" data-name="Path 471" d="M809.486,769l0,.009-.715,1.2c-.26-.139-.527-.267-.8-.381l.717-1.2.141.056A5.349,5.349,0,0,1,809.486,769Z" transform="translate(-791.699 -767.787)" fill="#edeaeb"/>
    <path id="Path_472" data-name="Path 472" d="M815.97,773.022l-.849,1.091c-.23-.183-.469-.358-.713-.518l.856-1.1C815.506,772.66,815.742,772.834,815.97,773.022Z" transform="translate(-796.644 -770.759)" fill="#edeaeb"/>
  </g>
  <g id="Group_27" data-name="Group 27" transform="translate(16.767 16.51)">
    <path id="Path_473" data-name="Path 473" d="M828.335,807.615l-.583.158c-.01-.311-.03-.608-.065-.907l.592-.149C828.312,807.012,828.331,807.313,828.335,807.615Z" transform="translate(-808.427 -798.778)" fill="#edeaeb"/>
    <path id="Path_474" data-name="Path 474" d="M828.29,813.087c-.012.3-.037.608-.077.907l-.575.079c.035-.3.063-.613.074-.917Z" transform="translate(-808.389 -803.67)" fill="#edeaeb"/>
    <path id="Path_475" data-name="Path 475" d="M827.2,819.287c-.056.3-.123.6-.2.889l-.575,0a7.684,7.684,0,0,0,.211-.884Z" transform="translate(-807.452 -808.431)" fill="#edeaeb"/>
    <path id="Path_476" data-name="Path 476" d="M825.391,824.946c-.1.293-.2.583-.323.868l-.55-.063c.118-.292.227-.58.32-.875Z" transform="translate(-805.994 -812.724)" fill="#edeaeb"/>
    <path id="Path_477" data-name="Path 477" d="M822.942,830.257q-.195.414-.424.814l-.529-.137c.155-.267.3-.534.432-.807Z" transform="translate(-804.05 -816.756)" fill="#edeaeb"/>
    <path id="Path_478" data-name="Path 478" d="M819.931,835.092c-.163.258-.337.513-.52.759l-.513-.2a7.632,7.632,0,0,0,.531-.754Z" transform="translate(-801.677 -820.419)" fill="#edeaeb"/>
    <path id="Path_479" data-name="Path 479" d="M816.557,839.415c-.188.239-.388.469-.6.694l-.48-.258c.216-.225.418-.455.61-.694Z" transform="translate(-799.051 -823.69)" fill="#edeaeb"/>
    <path id="Path_480" data-name="Path 480" d="M812.829,843.278c-.216.218-.439.427-.669.624l-.452-.318c.169-.146.339-.292.508-.453l.177-.165Z" transform="translate(-796.156 -826.617)" fill="#edeaeb"/>
    <path id="Path_481" data-name="Path 481" d="M818.537,784.8l-.538.5c-.091-.111-.193-.223-.295-.334s-.2-.223-.306-.32l.557-.51A8.375,8.375,0,0,1,818.537,784.8Z" transform="translate(-800.525 -781.431)" fill="#edeaeb"/>
    <path id="Path_482" data-name="Path 482" d="M822.485,790.086l-.569.4a5.648,5.648,0,0,0-.478-.743l.592-.418Q822.277,789.7,822.485,790.086Z" transform="translate(-803.628 -785.424)" fill="#edeaeb"/>
    <path id="Path_483" data-name="Path 483" d="M825.513,795.947l-.573.311a6.128,6.128,0,0,0-.341-.831l.6-.32C825.313,795.381,825.42,795.659,825.513,795.947Z" transform="translate(-806.055 -789.862)" fill="#edeaeb"/>
    <path id="Path_484" data-name="Path 484" d="M827.543,802.233l-.555.214c-.055-.3-.118-.59-.2-.875l.58-.225C827.441,801.637,827.5,801.934,827.543,802.233Z" transform="translate(-807.737 -794.655)" fill="#edeaeb"/>
    <path id="Path_485" data-name="Path 485" d="M808.739,847.073c-.237.19-.478.369-.727.538l-.355-.332c.253-.16.506-.332.752-.522Z" transform="translate(-793.045 -829.527)" fill="#edeaeb"/>
    <path id="Path_486" data-name="Path 486" d="M804.653,849.849c-.255.162-.513.318-.777.459l-.318-.385c.262-.132.527-.278.791-.436Z" transform="translate(-789.897 -831.623)" fill="#edeaeb"/>
    <path id="Path_487" data-name="Path 487" d="M800.378,852.117c-.269.137-.543.262-.82.376l-.281-.443a8.6,8.6,0,0,0,.833-.352Z" transform="translate(-786.61 -833.32)" fill="#edeaeb"/>
    <path id="Path_488" data-name="Path 488" d="M796.053,853.91c-.276.107-.557.2-.84.283l-.234-.492a8.191,8.191,0,0,0,.852-.264Z" transform="translate(-783.308 -834.657)" fill="#edeaeb"/>
    <path id="Path_489" data-name="Path 489" d="M791.652,855.234q-.431.118-.87.2l-.174-.538a8.771,8.771,0,0,0,.875-.177Z" transform="translate(-779.952 -835.64)" fill="#edeaeb"/>
    <path id="Path_490" data-name="Path 490" d="M787.278,856.094c-.292.049-.585.084-.88.107l-.109-.575c.295-.019.585-.044.882-.088Z" transform="translate(-776.635 -836.27)" fill="#edeaeb"/>
    <path id="Path_491" data-name="Path 491" d="M782.884,856.443q-.445.028-.884.014l-.042-.62c.295.019.589.026.884.019Z" transform="translate(-773.309 -836.5)" fill="#edeaeb"/>
    <path id="Path_492" data-name="Path 492" d="M778.487,855.464l-.039.618c-.3-.014-.592-.042-.88-.081l.037-.643A7.814,7.814,0,0,0,778.487,855.464Z" transform="translate(-769.938 -836.131)" fill="#edeaeb"/>
    <path id="Path_493" data-name="Path 493" d="M774.057,854.581l-.121.636a8.835,8.835,0,0,1-.868-.179l.123-.661A5.843,5.843,0,0,0,774.057,854.581Z" transform="translate(-766.482 -835.379)" fill="#edeaeb"/>
    <path id="Path_494" data-name="Path 494" d="M769.815,853.316l-.2.634a8.805,8.805,0,0,1-.844-.281l.206-.652C769.247,853.128,769.53,853.228,769.815,853.316Z" transform="translate(-763.181 -834.334)" fill="#edeaeb"/>
    <path id="Path_495" data-name="Path 495" d="M765.756,851.592l-.292.624a8.266,8.266,0,0,1-.8-.376l.29-.634A8.3,8.3,0,0,0,765.756,851.592Z" transform="translate(-760.032 -832.944)" fill="#edeaeb"/>
    <path id="Path_496" data-name="Path 496" d="M761.912,849.4l-.376.6a8.619,8.619,0,0,1-.747-.471l.376-.61A5.867,5.867,0,0,0,761.912,849.4Z" transform="translate(-757.053 -831.186)" fill="#edeaeb"/>
    <path id="Path_497" data-name="Path 497" d="M758.393,846.881l-.45.552a8.713,8.713,0,0,1-.685-.56l.45-.557A7.361,7.361,0,0,0,758.393,846.881Z" transform="translate(-754.341 -829.189)" fill="#edeaeb"/>
    <path id="Path_498" data-name="Path 498" d="M755.217,843.968l-.522.5c-.039-.039-.081-.076-.121-.116-.174-.169-.339-.343-.5-.524l.527-.5a2.581,2.581,0,0,0,.185.216C754.927,843.692,755.071,843.838,755.217,843.968Z" transform="translate(-751.899 -826.893)" fill="#edeaeb"/>
    <path id="Path_499" data-name="Path 499" d="M752.421,840.739l-.583.429a8.082,8.082,0,0,1-.541-.71l.587-.432A7.336,7.336,0,0,0,752.421,840.739Z" transform="translate(-749.764 -824.359)" fill="#edeaeb"/>
    <path id="Path_500" data-name="Path 500" d="M750.084,837.213l-.643.358a8.666,8.666,0,0,1-.443-.763l.636-.36A5.744,5.744,0,0,0,750.084,837.213Z" transform="translate(-747.998 -821.61)" fill="#edeaeb"/>
    <path id="Path_501" data-name="Path 501" d="M748.194,833.456l-.675.276a8.562,8.562,0,0,1-.35-.819l.67-.276A7.2,7.2,0,0,0,748.194,833.456Z" transform="translate(-746.592 -818.684)" fill="#edeaeb"/>
    <path id="Path_502" data-name="Path 502" d="M746.79,829.534l-.7.19c-.1-.278-.181-.564-.251-.854l.692-.183A8.041,8.041,0,0,0,746.79,829.534Z" transform="translate(-745.571 -815.65)" fill="#edeaeb"/>
    <path id="Path_503" data-name="Path 503" d="M745.887,825.442l-.715.1a8.872,8.872,0,0,1-.153-.879l.7-.1A6.89,6.89,0,0,0,745.887,825.442Z" transform="translate(-744.942 -812.486)" fill="#edeaeb"/>
    <path id="Path_504" data-name="Path 504" d="M745.466,821.269l-.715.009c-.03-.292-.049-.587-.053-.886l.694,0A6.479,6.479,0,0,0,745.466,821.269Z" transform="translate(-744.696 -809.276)" fill="#edeaeb"/>
    <path id="Path_505" data-name="Path 505" d="M745.412,815.871a8.868,8.868,0,0,0-.03.9l-.694-.074c0-.109,0-.223,0-.334.007-.188.019-.373.037-.561Z" transform="translate(-744.688 -805.751)" fill="#edeaeb"/>
    <path id="Path_506" data-name="Path 506" d="M745.741,811.315a8.552,8.552,0,0,0-.125.886l-.677-.162c.032-.295.077-.589.135-.882Z" transform="translate(-744.88 -802.188)" fill="#edeaeb"/>
    <path id="Path_507" data-name="Path 507" d="M746.568,806.843a8.514,8.514,0,0,0-.22.863l-.65-.248c.06-.29.135-.575.22-.861Z" transform="translate(-745.464 -798.686)" fill="#edeaeb"/>
    <path id="Path_508" data-name="Path 508" d="M747.849,802.407c-.114.286-.213.557-.3.842l-.622-.325c.093-.283.2-.564.313-.838Z" transform="translate(-746.408 -795.223)" fill="#edeaeb"/>
    <path id="Path_509" data-name="Path 509" d="M749.663,798.074c-.144.262-.269.534-.392.806l-.573-.4c.121-.272.255-.538.4-.8Z" transform="translate(-747.767 -791.836)" fill="#edeaeb"/>
    <path id="Path_510" data-name="Path 510" d="M751.951,793.9c-.174.255-.33.506-.478.764l-.524-.469c.153-.26.316-.515.49-.766Z" transform="translate(-749.495 -788.572)" fill="#edeaeb"/>
    <path id="Path_511" data-name="Path 511" d="M754.786,789.9c-.2.232-.39.469-.564.712l-.464-.539c.179-.243.369-.483.566-.712Z" transform="translate(-751.653 -785.447)" fill="#edeaeb"/>
    <path id="Path_512" data-name="Path 512" d="M758.106,786.17c-.216.211-.427.427-.624.645l-.4-.6c.093-.1.19-.206.288-.309.114-.116.23-.229.346-.341Z" transform="translate(-754.203 -782.536)" fill="#edeaeb"/>
    <path id="Path_513" data-name="Path 513" d="M761.969,782.7c-.239.186-.474.376-.7.585l-.327-.662c.227-.2.462-.394.7-.578Z" transform="translate(-757.167 -779.833)" fill="#edeaeb"/>
    <path id="Path_514" data-name="Path 514" d="M766.312,779.651a6.237,6.237,0,0,0-.768.5l-.255-.726q.376-.264.77-.5Z" transform="translate(-760.508 -777.437)" fill="#edeaeb"/>
    <path id="Path_515" data-name="Path 515" d="M771.186,777.07c-.276.121-.55.253-.821.4l-.167-.768q.4-.216.822-.4Z" transform="translate(-764.278 -775.425)" fill="#edeaeb"/>
    <path id="Path_516" data-name="Path 516" d="M776.564,775.088c-.292.088-.58.183-.861.3l-.065-.8c.283-.107.568-.2.859-.286Z" transform="translate(-768.456 -773.881)" fill="#edeaeb"/>
    <path id="Path_517" data-name="Path 517" d="M782.276,772.977l-.027.819a6.853,6.853,0,0,0-.9.177l.035-.822C781.678,773.079,781.977,773.021,782.276,772.977Z" transform="translate(-772.841 -772.868)" fill="#edeaeb"/>
    <path id="Path_518" data-name="Path 518" d="M788.15,772.507l-.13.809c-.295.007-.6.026-.912.056l.13-.819c.112-.011.223-.021.337-.027C787.769,772.514,787.959,772.507,788.15,772.507Z" transform="translate(-777.264 -772.507)" fill="#edeaeb"/>
    <path id="Path_519" data-name="Path 519" d="M794.248,772.667l-.234.8a8.059,8.059,0,0,0-.9-.081l.241-.81C793.659,772.593,793.956,772.623,794.248,772.667Z" transform="translate(-781.88 -772.561)" fill="#edeaeb"/>
    <path id="Path_520" data-name="Path 520" d="M800.382,773.7l-.341.766a6.68,6.68,0,0,0-.863-.218l.344-.782A8.3,8.3,0,0,1,800.382,773.7Z" transform="translate(-786.533 -773.244)" fill="#edeaeb"/>
    <path id="Path_521" data-name="Path 521" d="M806.368,775.815l-.422.705a6.145,6.145,0,0,0-.807-.367l.429-.717A7.839,7.839,0,0,1,806.368,775.815Z" transform="translate(-791.11 -774.757)" fill="#edeaeb"/>
    <g id="Group_26" data-name="Group 26" transform="translate(15.413 1.439)">
      <path id="Path_522" data-name="Path 522" d="M812.317,779.227l-.483.619a7.346,7.346,0,0,0-.726-.5l.494-.638A8.558,8.558,0,0,1,812.317,779.227Z" transform="translate(-811.108 -778.707)" fill="#edeaeb"/>
    </g>
  </g>
  <g id="Group_28" data-name="Group 28">
    <circle id="Ellipse_11" data-name="Ellipse 11" cx="0.711" cy="0.711" r="0.711" transform="translate(50.906 33.796)" fill="#edeaeb"/>
    <circle id="Ellipse_12" data-name="Ellipse 12" cx="0.706" cy="0.706" r="0.706" transform="translate(44.894 8.631)" fill="#edeaeb"/>
    <circle id="Ellipse_13" data-name="Ellipse 13" cx="0.706" cy="0.706" r="0.706" transform="translate(18.67)" fill="#edeaeb"/>
    <circle id="Ellipse_14" data-name="Ellipse 14" cx="0.706" cy="0.706" r="0.706" transform="translate(7.367 43.624)" fill="#edeaeb"/>
    <circle id="Ellipse_15" data-name="Ellipse 15" cx="0.706" cy="0.706" r="0.706" transform="translate(0 17.93)" fill="#edeaeb"/>
    <circle id="Ellipse_16" data-name="Ellipse 16" cx="0.706" cy="0.706" r="0.706" transform="translate(32.586 51.888)" fill="#edeaeb"/>
  </g>
  <g id="Group_30" data-name="Group 30" transform="translate(32.31 15.666)">
    <g id="Group_29" data-name="Group 29">
      <path id="Path_523" data-name="Path 523" d="M811.668,768.867c.221.1.441.211.655.327l0-.01A5.443,5.443,0,0,0,811.668,768.867Z" transform="translate(-811.668 -768.867)" fill="#edeaeb"/>
    </g>
  </g>
</svg>
