<svg id="Group_31" data-name="Group 31" xmlns="http://www.w3.org/2000/svg" width="65.308" height="66.52" viewBox="0 0 65.308 66.52">
  <g id="Group_23" data-name="Group 23" transform="translate(2.955 2.735)">
    <path id="Path_329" data-name="Path 329" d="M862.982,809.02l-3.024.394c.02-.379.032-.756.032-1.129l1.06-.142,1.784-.238a.557.557,0,0,1,.628.481.01.01,0,0,1,0,.009A.556.556,0,0,1,862.982,809.02Z" transform="translate(-808.603 -779.779)" fill="#00587b"/>
    <path id="Path_330" data-name="Path 330" d="M866.275,819.654v.012a.548.548,0,0,1-.541.559l-6.986.026c.073-.368.134-.739.183-1.109l6.8-.014A.544.544,0,0,1,866.275,819.654Z" transform="translate(-807.743 -787.755)" fill="#00587b"/>
    <path id="Path_331" data-name="Path 331" d="M865.6,830.267a.56.56,0,0,1-.623.576l-8.677-1.052c.119-.362.229-.727.327-1.095l8.483,1.031a.55.55,0,0,1,.487.527A.018.018,0,0,1,865.6,830.267Z" transform="translate(-806.003 -794.552)" fill="#00587b"/>
    <path id="Path_332" data-name="Path 332" d="M862.433,840.715s0,.006,0,.008a.546.546,0,0,1-.646.333l-9.036-2.259c.162-.339.316-.684.458-1.031l8.848,2.213A.554.554,0,0,1,862.433,840.715Z" transform="translate(-803.481 -800.996)" fill="#00587b"/>
    <path id="Path_333" data-name="Path 333" d="M857.33,850.227s0,.005-.006.009a.55.55,0,0,1-.646.194l-8.431-3.276c.2-.319.391-.64.573-.967l8.263,3.206A.552.552,0,0,1,857.33,850.227Z" transform="translate(-800.285 -806.978)" fill="#00587b"/>
    <path id="Path_334" data-name="Path 334" d="M850.844,858.414s0,.006-.006.009a.549.549,0,0,1-.715.179l-7.165-3.855c.238-.3.466-.6.686-.9l7,3.782A.546.546,0,0,1,850.844,858.414Z" transform="translate(-796.527 -812.419)" fill="#00587b"/>
    <path id="Path_335" data-name="Path 335" d="M841.083,864.266l-.009.011a.652.652,0,0,1-.909.156l-3.687-2.638c.315-.313.622-.632.918-.959l3.533,2.528A.651.651,0,0,1,841.083,864.266Z" transform="translate(-791.923 -817.385)" fill="#00587b"/>
    <path id="Path_336" data-name="Path 336" d="M848.3,746.829l-5.453,5.007c-.185-.214-.371-.426-.565-.631-.058-.063-.119-.124-.182-.188l5.451-5a.547.547,0,0,1,.77.029.043.043,0,0,0,.009.011A.547.547,0,0,1,848.3,746.829Z" transform="translate(-795.916 -735.713)" fill="#00587b"/>
    <path id="Path_337" data-name="Path 337" d="M855.163,758.045l-5.859,4.2q-.279-.474-.6-.93l5.827-4.15a.536.536,0,0,1,.762.148s0,.006.006.009A.536.536,0,0,1,855.163,758.045Z" transform="translate(-800.611 -743.667)" fill="#00587b"/>
    <path id="Path_338" data-name="Path 338" d="M859.379,772.315l-5.051,2.76c-.136-.345-.284-.686-.44-1.022l4.982-2.679a.533.533,0,0,1,.707.2s0,.006.006.009A.53.53,0,0,1,859.379,772.315Z" transform="translate(-804.291 -753.787)" fill="#00587b"/>
    <path id="Path_339" data-name="Path 339" d="M859.619,789.177l-1.839.669c-.081-.365-.171-.727-.272-1.086l1.709-.657a.57.57,0,0,1,.756.382.027.027,0,0,1,0,.012A.57.57,0,0,1,859.619,789.177Z" transform="translate(-806.863 -765.688)" fill="#00587b"/>
    <path id="Path_340" data-name="Path 340" d="M826.4,876.6l-.006.006a.564.564,0,0,1-.776-.09l-2.589-3.134c.31-.2.617-.405.921-.62l1.243,1.5,1.294,1.532A.56.56,0,0,1,826.4,876.6Z" transform="translate(-782.369 -825.86)" fill="#00587b"/>
    <path id="Path_341" data-name="Path 341" d="M820.779,884.608l-.012.009a.562.562,0,0,1-.819-.145l-4.24-6.684c.33-.165.657-.339.979-.521l4.223,6.592A.56.56,0,0,1,820.779,884.608Z" transform="translate(-777.168 -829.056)" fill="#00587b"/>
    <path id="Path_342" data-name="Path 342" d="M813.046,890.517s-.006,0-.009,0a.545.545,0,0,1-.747-.249l-4.2-8.9q.522-.2,1.034-.418l4.165,8.845A.55.55,0,0,1,813.046,890.517Z" transform="translate(-771.756 -831.677)" fill="#00587b"/>
    <path id="Path_343" data-name="Path 343" d="M804.222,894.543c-.006,0-.012,0-.018.006a.549.549,0,0,1-.681-.353l-3.3-10.067c.359-.089.713-.191,1.066-.3l3.275,10.023A.545.545,0,0,1,804.222,894.543Z" transform="translate(-766.172 -833.716)" fill="#00587b"/>
    <path id="Path_344" data-name="Path 344" d="M794.782,896.447h-.012a.541.541,0,0,1-.631-.426l-1.961-10.009c.368-.052.733-.113,1.1-.185l1.935,9.986A.545.545,0,0,1,794.782,896.447Z" transform="translate(-760.453 -835.137)" fill="#00587b"/>
    <path id="Path_345" data-name="Path 345" d="M785.739,895.64a.542.542,0,0,1-.521.579h-.009a.547.547,0,0,1-.562-.507l-.579-8.692c.368-.012.736-.032,1.1-.064Z" transform="translate(-754.692 -835.94)" fill="#00587b"/>
    <path id="Path_346" data-name="Path 346" d="M776.19,887.058l-.359,6.065a.536.536,0,0,1-.608.495h-.009a.536.536,0,0,1-.458-.559l.339-6.062C775.457,887.029,775.822,887.046,776.19,887.058Z" transform="translate(-748.077 -835.968)" fill="#00587b"/>
    <path id="Path_347" data-name="Path 347" d="M768.51,886.141l-.362,1.967a.43.43,0,0,1-.5.347s-.005,0-.009,0a.431.431,0,0,1-.356-.492c.093-.576.252-1.587.3-1.972C767.89,886.045,768.2,886.1,768.51,886.141Z" transform="translate(-742.765 -835.251)" fill="#00587b"/>
    <path id="Path_348" data-name="Path 348" d="M760.205,884.1c-.075.185-.217.545-.33.831a.5.5,0,0,1-.617.29l-.012,0a.5.5,0,0,1-.325-.625l.255-.8C759.516,883.91,759.858,884.011,760.205,884.1Z" transform="translate(-736.813 -833.695)" fill="#00587b"/>
    <path id="Path_349" data-name="Path 349" d="M748.984,881.183l-1.737,3.693a.528.528,0,0,1-.678.266c-.006,0-.009-.006-.015-.006a.53.53,0,0,1-.278-.713l1.7-3.687C748.307,880.9,748.643,881.047,748.984,881.183Z" transform="translate(-727.81 -831.521)" fill="#00587b"/>
    <path id="Path_350" data-name="Path 350" d="M737.631,877.3l-3.345,5.381a.547.547,0,0,1-.753.18s-.006,0-.009,0a.554.554,0,0,1-.18-.761l3.339-5.37Q737.149,877.031,737.631,877.3Z" transform="translate(-718.6 -828.673)" fill="#00587b"/>
    <path id="Path_351" data-name="Path 351" d="M727.249,872.519l-4.831,5.92a.543.543,0,0,1-.785.058.032.032,0,0,1-.012-.009.544.544,0,0,1-.055-.747l4.813-5.914C726.664,872.068,726.954,872.3,727.249,872.519Z" transform="translate(-710.205 -825.192)" fill="#00587b"/>
    <path id="Path_352" data-name="Path 352" d="M718.909,866.9l-5.717,5.474a.545.545,0,0,1-.765-.009l-.012-.008a.548.548,0,0,1,.009-.782l5.714-5.471c.055.061.11.119.165.18C718.5,866.5,718.7,866.7,718.909,866.9Z" transform="translate(-703.679 -821.128)" fill="#00587b"/>
    <path id="Path_353" data-name="Path 353" d="M712.5,860.529l-6.137,4.561a.544.544,0,0,1-.788-.156s0-.006-.006-.009a.539.539,0,0,1,.142-.712l6.125-4.576C712.046,859.941,712.269,860.24,712.5,860.529Z" transform="translate(-698.872 -816.532)" fill="#00587b"/>
    <path id="Path_354" data-name="Path 354" d="M709.3,853.557l-5.581,3.145a.55.55,0,0,1-.765-.237s-.006-.006-.006-.009a.553.553,0,0,1,.223-.724l5.584-3.145C708.928,852.917,709.107,853.239,709.3,853.557Z" transform="translate(-697.027 -811.524)" fill="#00587b"/>
    <path id="Path_355" data-name="Path 355" d="M710.519,846.074l-3.568,1.466a.584.584,0,0,1-.785-.4.018.018,0,0,1,0-.012.581.581,0,0,1,.351-.684l3.591-1.41C710.233,845.387,710.369,845.732,710.519,846.074Z" transform="translate(-699.337 -806.16)" fill="#00587b"/>
    <path id="Path_356" data-name="Path 356" d="M715.43,838.484l-.625.168a.477.477,0,0,1-.565-.275c0-.006,0-.009,0-.012a.476.476,0,0,1,.289-.637c.22-.073.472-.154.652-.212Q715.291,838.008,715.43,838.484Z" transform="translate(-705.059 -800.818)" fill="#00587b"/>
    <path id="Path_357" data-name="Path 357" d="M702.779,821.953l-2.2.029-2.621-.032a.511.511,0,0,1-.507-.487c0-.009,0-.017,0-.023a.515.515,0,0,1,.509-.521l4.808-.073C702.759,821.218,702.762,821.588,702.779,821.953Z" transform="translate(-693.158 -788.976)" fill="#00587b"/>
    <path id="Path_358" data-name="Path 358" d="M694.829,810.4c-.043.345-.081.689-.107,1.034,0,.023,0,.049-.006.072l-8.214-.958a.525.525,0,0,1-.461-.568.124.124,0,0,1,0-.015.523.523,0,0,1,.579-.472Z" transform="translate(-685.055 -780.906)" fill="#00587b"/>
    <path id="Path_359" data-name="Path 359" d="M692.841,798.912c-.087.362-.165.727-.232,1.094l-9.546-2.282a.555.555,0,0,1-.417-.634s0-.009,0-.012a.552.552,0,0,1,.672-.44Z" transform="translate(-682.638 -771.768)" fill="#00587b"/>
    <path id="Path_360" data-name="Path 360" d="M694.738,787.667c-.124.345-.24.695-.345,1.046l-9.687-3.646a.548.548,0,0,1-.327-.686c0-.006,0-.009.006-.012a.547.547,0,0,1,.71-.336Z" transform="translate(-683.854 -762.799)" fill="#00587b"/>
    <path id="Path_361" data-name="Path 361" d="M700.05,777.609c-.162.33-.313.666-.457,1l-8.79-4.634a.538.538,0,0,1-.229-.721s0-.006.006-.009a.539.539,0,0,1,.727-.232Z" transform="translate(-688.234 -754.957)" fill="#00587b"/>
    <path id="Path_362" data-name="Path 362" d="M708.333,769.5c-.2.313-.388.632-.565.953l-7.026-4.944a.534.534,0,0,1-.139-.729s0-.009.006-.012a.538.538,0,0,1,.753-.142Z" transform="translate(-695.337 -748.967)" fill="#00587b"/>
    <path id="Path_363" data-name="Path 363" d="M720.99,766.309c-.226.293-.449.591-.663.892l-3.8-3.432a.514.514,0,0,1-.064-.692.06.06,0,0,1,.009-.012.511.511,0,0,1,.745-.072Z" transform="translate(-706.59 -747.787)" fill="#00587b"/>
    <path id="Path_364" data-name="Path 364" d="M735.505,768c-.237.243-.466.493-.689.747l-.011-.015-.006-.006-.1-.107a.5.5,0,0,1,0-.654.1.1,0,0,0,.009-.012.5.5,0,0,1,.727-.023Z" transform="translate(-719.536 -751.278)" fill="#00587b"/>
    <path id="Path_365" data-name="Path 365" d="M742.2,742.552c-.307.205-.611.417-.912.643l-1.57-3.14a.01.01,0,0,0,0-.014l-1.26-2.615a.529.529,0,0,1,.249-.71.162.162,0,0,0,.017-.006.528.528,0,0,1,.689.246Z" transform="translate(-722.254 -729.174)" fill="#00587b"/>
    <path id="Path_366" data-name="Path 366" d="M749.268,730.365c-.33.171-.657.347-.979.536l-3.075-8.781a.553.553,0,0,1,.33-.7.011.011,0,0,0,.009,0,.552.552,0,0,1,.71.336Z" transform="translate(-727.068 -718.319)" fill="#00587b"/>
    <path id="Path_367" data-name="Path 367" d="M759.994,723.419c-.351.131-.7.269-1.043.42l-2.131-10.05a.494.494,0,0,1-.012-.11.533.533,0,0,1,1.054-.113Z" transform="translate(-735.327 -712.468)" fill="#00587b"/>
    <path id="Path_368" data-name="Path 368" d="M772.088,720.955c-.365.084-.727.18-1.086.29l-.86-9.844a.551.551,0,0,1,.518-.6h.012a.551.551,0,0,1,.588.5Z" transform="translate(-744.798 -710.802)" fill="#00587b"/>
    <path id="Path_369" data-name="Path 369" d="M784.035,714.9l-.325,8.074q-.56.057-1.112.148l.31-8.266a.563.563,0,0,1,.64-.533s.006,0,.011,0A.553.553,0,0,1,784.035,714.9Z" transform="translate(-753.648 -713.3)" fill="#00587b"/>
    <path id="Path_370" data-name="Path 370" d="M794.316,724.869l-.753,5.074c-.272-.009-.547-.012-.822-.009-.1,0-.194,0-.293.006l.852-5.23a.506.506,0,0,1,.585-.42h.009A.509.509,0,0,1,794.316,724.869Z" transform="translate(-760.645 -720.379)" fill="#00587b"/>
    <path id="Path_371" data-name="Path 371" d="M825.211,738.422l-1.882,3.151c-.324-.171-.655-.333-.99-.484l1.193-2.007.718-1.225a.553.553,0,0,1,.666-.24s.006,0,.009,0A.553.553,0,0,1,825.211,738.422Z" transform="translate(-781.879 -729.827)" fill="#00587b"/>
    <path id="Path_372" data-name="Path 372" d="M836.71,737.048l-4.051,5.2q-.439-.339-.9-.649l4.081-5.228a.548.548,0,0,1,.712-.133s.006,0,.009.006A.547.547,0,0,1,836.71,737.048Z" transform="translate(-788.57 -728.815)" fill="#00587b"/>
  </g>
  <g id="Group_24" data-name="Group 24" transform="translate(13.107 12.888)">
    <path id="Path_373" data-name="Path 373" d="M842.6,802.811l-2.825.738c-.011-.158-.093-1.061-.106-1.124l2.632-.728a.571.571,0,0,1,.7.4l0,.011A.571.571,0,0,1,842.6,802.811Z" transform="translate(-804.343 -785.51)" fill="#00587b"/>
    <path id="Path_374" data-name="Path 374" d="M845.192,809.467c0,.376-.015.756-.038,1.135l-5.256.672c.035-.385.055-.756.061-1.127Z" transform="translate(-804.505 -791.045)" fill="#00587b"/>
    <path id="Path_375" data-name="Path 375" d="M844.16,819.177c-.052.374-.113.744-.188,1.115l-5.233.017c.081-.368.156-.744.208-1.115Z" transform="translate(-803.681 -797.943)" fill="#00587b"/>
    <path id="Path_376" data-name="Path 376" d="M842.1,826.977c-.1.365-.211.727-.334,1.086l-5.138-.614c.13-.365.252-.724.351-1.092Z" transform="translate(-802.182 -803.043)" fill="#00587b"/>
    <path id="Path_377" data-name="Path 377" d="M839.155,834.25c-.145.35-.3.695-.466,1.037l-4.961-1.254c.174-.333.345-.675.49-1.025Z" transform="translate(-800.121 -807.767)" fill="#00587b"/>
    <path id="Path_378" data-name="Path 378" d="M835.434,841.019c-.185.327-.382.652-.585.97l-4.721-1.83c.223-.319.423-.643.614-.962Z" transform="translate(-797.564 -812.164)" fill="#00587b"/>
    <path id="Path_379" data-name="Path 379" d="M831.114,847.14c-.223.3-.452.6-.692.9l-4.414-2.384c.252-.284.492-.585.721-.878Z" transform="translate(-794.638 -816.128)" fill="#00587b"/>
    <path id="Path_380" data-name="Path 380" d="M826.189,852.691q-.447.5-.93.968l-3.921-2.983c.287-.272.565-.556.834-.849Z" transform="translate(-791.32 -819.716)" fill="#00587b"/>
    <path id="Path_381" data-name="Path 381" d="M831.654,765.754l-4.009,3.681c-.229-.289-.469-.568-.727-.837l3.988-3.661c.032.029.064.058.093.09s.064.067.1.1c.1.107.2.214.292.322S831.566,765.649,831.654,765.754Z" transform="translate(-795.284 -759.411)" fill="#00587b"/>
    <path id="Path_382" data-name="Path 382" d="M836.85,773.771l-4.472,3.18c-.177-.322-.368-.637-.57-.944l4.448-3.16C836.465,773.148,836.662,773.458,836.85,773.771Z" transform="translate(-798.758 -765.031)" fill="#00587b"/>
    <path id="Path_383" data-name="Path 383" d="M840.842,782.7l-4.8,2.574a10.925,10.925,0,0,0-.452-1.013l4.813-2.583C840.561,782.013,840.705,782.352,840.842,782.7Z" transform="translate(-801.443 -771.303)" fill="#00587b"/>
    <path id="Path_384" data-name="Path 384" d="M843.665,792.24l-5.036,1.941c-.072-.371-.159-.727-.261-1.083l5.028-1.94C843.5,791.516,843.587,791.875,843.665,792.24Z" transform="translate(-803.418 -778.038)" fill="#00587b"/>
    <path id="Path_385" data-name="Path 385" d="M820.689,858.04c-.281.249-.57.487-.863.718l-.42-.4-3.128-2.948c.3-.214.6-.446.892-.684Z" transform="translate(-787.725 -823.197)" fill="#00587b"/>
    <path id="Path_386" data-name="Path 386" d="M815.127,862.137q-.461.326-.93.623l-3.1-3.748c.139-.081.275-.165.411-.255.075-.044.147-.09.22-.139.1-.064.2-.133.307-.206a.024.024,0,0,1,.011-.005Z" transform="translate(-784.046 -825.811)" fill="#00587b"/>
    <path id="Path_387" data-name="Path 387" d="M809.275,865.676c-.327.186-.657.359-.991.527l-2.606-4.1c.342-.153.675-.321,1.005-.5Z" transform="translate(-780.195 -828.084)" fill="#00587b"/>
    <path id="Path_388" data-name="Path 388" d="M803.238,868.551c-.339.145-.678.281-1.022.411l-2.068-4.388v0c.351-.116.7-.243,1.04-.385Z" transform="translate(-776.267 -829.917)" fill="#00587b"/>
    <path id="Path_389" data-name="Path 389" d="M796.989,870.739c-.353.11-.707.209-1.063.3l-1.518-4.628c.365-.078.724-.168,1.081-.275Z" transform="translate(-772.189 -831.302)" fill="#00587b"/>
    <path id="Path_390" data-name="Path 390" d="M790.638,872.253c-.356.072-.718.133-1.08.182l-.93-4.8c.159-.014.316-.035.475-.055.208-.029.417-.061.623-.1Z" transform="translate(-768.083 -832.254)" fill="#00587b"/>
    <path id="Path_391" data-name="Path 391" d="M784.223,873.076c-.365.032-.73.055-1.1.064l-.327-4.92h.125c.324,0,.649-.011.973-.032Z" transform="translate(-763.942 -832.758)" fill="#00587b"/>
    <path id="Path_392" data-name="Path 392" d="M777.389,868.01l-.286,4.944c-.368-.011-.733-.029-1.1-.058l.3-4.979C776.663,867.96,777.025,867.992,777.389,868.01Z" transform="translate(-759.118 -832.567)" fill="#00587b"/>
    <path id="Path_393" data-name="Path 393" d="M770.108,867.063l-.918,4.932c-.368-.052-.73-.113-1.092-.185l.932-4.973C769.384,866.927,769.746,867,770.108,867.063Z" transform="translate(-753.499 -831.8)" fill="#00587b"/>
    <path id="Path_394" data-name="Path 394" d="M763.054,865.446l-1.543,4.851c-.359-.093-.712-.2-1.063-.316L762,865.087C762.345,865.22,762.7,865.341,763.054,865.446Z" transform="translate(-748.065 -830.557)" fill="#00587b"/>
    <path id="Path_395" data-name="Path 395" d="M756.232,863.165l-2.158,4.7c-.345-.136-.684-.287-1.016-.449l2.187-4.727C755.566,862.861,755.9,863.023,756.232,863.165Z" transform="translate(-742.815 -828.852)" fill="#00587b"/>
    <path id="Path_396" data-name="Path 396" d="M749.8,860.259l-2.775,4.443c-.321-.177-.637-.368-.947-.57l2.795-4.474C749.174,859.871,749.484,860.074,749.8,860.259Z" transform="translate(-737.857 -826.699)" fill="#00587b"/>
    <path id="Path_397" data-name="Path 397" d="M743.889,856.789l-3.345,4.11c-.3-.22-.585-.449-.866-.692l3.359-4.13c.026.023.055.046.081.07,0,0,0,0,.005,0,.125.113.249.223.38.33S743.759,856.688,743.889,856.789Z" transform="translate(-733.31 -824.156)" fill="#00587b"/>
    <path id="Path_398" data-name="Path 398" d="M738.562,852.806l-3.866,3.7c-.2-.2-.4-.4-.594-.605-.058-.064-.119-.128-.174-.191l3.87-3.7a2.419,2.419,0,0,0,.179.212C738.162,852.421,738.359,852.618,738.562,852.806Z" transform="translate(-729.225 -821.265)" fill="#00587b"/>
    <path id="Path_399" data-name="Path 399" d="M733.9,848.389l-4.3,3.192c-.229-.29-.452-.588-.66-.892l4.3-3.192A9.216,9.216,0,0,0,733.9,848.389Z" transform="translate(-725.68 -818.061)" fill="#00587b"/>
    <path id="Path_400" data-name="Path 400" d="M729.984,843.566l-4.657,2.627c-.191-.316-.371-.64-.538-.967l4.648-2.618A10.994,10.994,0,0,0,729.984,843.566Z" transform="translate(-722.733 -814.587)" fill="#00587b"/>
    <path id="Path_401" data-name="Path 401" d="M726.92,838.389l-4.935,2.027q-.226-.508-.417-1.034l4.924-2.016A8.833,8.833,0,0,0,726.92,838.389Z" transform="translate(-720.445 -810.865)" fill="#00587b"/>
    <path id="Path_402" data-name="Path 402" d="M724.712,832.944l-5.106,1.39c-.1-.356-.2-.713-.278-1.077a8.662,8.662,0,0,1,1.153-.321l.009-.006,3.939-1.063C724.506,832.232,724.6,832.594,724.712,832.944Z" transform="translate(-718.853 -806.958)" fill="#00587b"/>
    <path id="Path_403" data-name="Path 403" d="M723.343,827.35l-4.651.756a.614.614,0,0,1-.594-.24.587.587,0,0,1-.122-.281.6.6,0,0,1-.009-.1.6.6,0,0,1,.049-.237.614.614,0,0,1,.493-.379l4.663-.623C723.193,826.467,723.323,827.264,723.343,827.35Z" transform="translate(-717.887 -802.965)" fill="#00587b"/>
    <path id="Path_404" data-name="Path 404" d="M722.926,821.653l-5.219.07c-.015-.368-.02-.736-.015-1.107l5.2-.069A9.967,9.967,0,0,0,722.926,821.653Z" transform="translate(-717.69 -798.916)" fill="#00587b"/>
    <path id="Path_405" data-name="Path 405" d="M723.113,813.418c-.046.377-.07.744-.084,1.1l-5.141-.564c0-.032,0-.067.006-.1.026-.339.061-.675.1-1.01Z" transform="translate(-717.831 -793.446)" fill="#00587b"/>
    <path id="Path_406" data-name="Path 406" d="M724.111,806.177c-.078.356-.148.721-.194,1.1l-5-1.2c.064-.365.142-.73.229-1.089Z" transform="translate(-718.563 -787.862)" fill="#00587b"/>
    <path id="Path_407" data-name="Path 407" d="M725.892,799.115c-.125.356-.217.713-.31,1.069l-4.785-1.8q.161-.526.348-1.043Z" transform="translate(-719.898 -782.428)" fill="#00587b"/>
    <path id="Path_408" data-name="Path 408" d="M728.471,792.241c-.156.339-.3.678-.429,1.025l-4.495-2.372q.214-.508.457-1.008Z" transform="translate(-721.852 -777.136)" fill="#00587b"/>
    <path id="Path_409" data-name="Path 409" d="M731.789,785.644c-.11.191-.211.385-.31.582a.061.061,0,0,0-.017.029c-.067.125-.134.246-.2.368l-4.147-2.9c.18-.319.365-.635.559-.947Z" transform="translate(-724.387 -772.085)" fill="#00587b"/>
    <path id="Path_410" data-name="Path 410" d="M735.824,779.362c-.22.307-.426.623-.623.941l-3.733-3.371c.214-.3.437-.6.667-.9Z" transform="translate(-727.478 -767.297)" fill="#00587b"/>
    <path id="Path_411" data-name="Path 411" d="M740.609,773.585c-.078.093-.159.185-.237.281-.162.194-.322.391-.472.591l-3.261-3.78c.229-.261.463-.519.707-.771l1.48,1.61.008.009.043.049Z" transform="translate(-731.15 -762.942)" fill="#00587b"/>
    <path id="Path_412" data-name="Path 412" d="M746.173,768.556c-.275.255-.542.518-.8.794l-2.607-3.684a.609.609,0,0,1,.15-.849l.012-.009a.6.6,0,0,1,.269-.1.609.609,0,0,1,.585.267Z" transform="translate(-735.426 -759.243)" fill="#00587b"/>
    <path id="Path_413" data-name="Path 413" d="M752.292,763.083c-.3.223-.6.455-.883.7l-2.2-4.431c.3-.223.6-.437.909-.646Z" transform="translate(-740.08 -754.986)" fill="#00587b"/>
    <path id="Path_414" data-name="Path 414" d="M759.146,758.8c-.331.185-.652.385-.968.6l-1.639-4.663q.152-.091.3-.174c.067-.041.133-.078.2-.113.159-.09.321-.177.483-.261Z" transform="translate(-745.288 -751.775)" fill="#00587b"/>
    <path id="Path_415" data-name="Path 415" d="M766.689,755.354c-.347.148-.692.3-1.028.475L764.618,751c.342-.148.7-.29,1.046-.417Z" transform="translate(-751.027 -749.217)" fill="#00587b"/>
    <path id="Path_416" data-name="Path 416" d="M774.811,752.763c-.362.1-.718.208-1.071.333l-.432-4.926c.365-.11.721-.214,1.086-.292Z" transform="translate(-757.2 -747.292)" fill="#00587b"/>
    <path id="Path_417" data-name="Path 417" d="M783.158,746.3l-.18,4.926a.834.834,0,0,0-.084.009c-.348.046-.692.107-1.037.177l.188-4.964C782.411,746.384,782.782,746.329,783.158,746.3Z" transform="translate(-763.274 -746.17)" fill="#00587b"/>
    <path id="Path_418" data-name="Path 418" d="M791.219,745.878l-.8,4.906q-.565-.009-1.138.026l.811-4.935A8.666,8.666,0,0,1,791.219,745.878Z" transform="translate(-768.545 -745.858)" fill="#00587b"/>
    <path id="Path_419" data-name="Path 419" d="M799.263,747.214l-1.179,4.275c-.365-.064-.736-.11-1.106-.145l1.295-4.411a.507.507,0,0,1,.579-.356s.009,0,.014,0A.507.507,0,0,1,799.263,747.214Z" transform="translate(-774.015 -746.363)" fill="#00587b"/>
    <path id="Path_420" data-name="Path 420" d="M807.441,749.625l-1.761,4.037c-.353-.124-.71-.232-1.072-.321.356-.826,1.364-3.148,1.8-4.165a.553.553,0,0,1,.712-.3.011.011,0,0,1,.009,0A.559.559,0,0,1,807.441,749.625Z" transform="translate(-779.435 -747.978)" fill="#00587b"/>
    <path id="Path_421" data-name="Path 421" d="M815.7,751.969l-2.679,4.5c-.324-.18-.657-.345-.994-.492L814.7,751.5A10.984,10.984,0,0,1,815.7,751.969Z" transform="translate(-784.706 -749.864)" fill="#00587b"/>
    <path id="Path_422" data-name="Path 422" d="M823.426,757.16l-3.284,4.211c-.287-.232-.582-.452-.883-.657l3.261-4.2C822.826,756.717,823.13,756.934,823.426,757.16Z" transform="translate(-789.843 -753.43)" fill="#00587b"/>
  </g>
  <g id="Group_25" data-name="Group 25" transform="translate(18.948 18.434)">
    <path id="Path_423" data-name="Path 423" d="M833.915,805.948l-1.5.385c-.014-.371-.041-.745-.084-1.115l1.494-.391C833.866,805.195,833.9,805.571,833.915,805.948Z" transform="translate(-804.968 -793.295)" fill="#00587b"/>
    <path id="Path_424" data-name="Path 424" d="M833.955,812.117c-.009.376-.029.753-.064,1.126l-1.523.2a10.6,10.6,0,0,0,.075-1.126Z" transform="translate(-804.996 -798.473)" fill="#00587b"/>
    <path id="Path_425" data-name="Path 425" d="M832.949,819.247c-.061.374-.133.744-.22,1.112l-1.521.009c.093-.359.174-.73.235-1.106Z" transform="translate(-804.172 -803.538)" fill="#00587b"/>
    <path id="Path_426" data-name="Path 426" d="M831.089,825.625q-.165.548-.368,1.086l-1.5-.182c.145-.365.267-.724.383-1.092Z" transform="translate(-802.759 -807.936)" fill="#00587b"/>
    <path id="Path_427" data-name="Path 427" d="M828.483,831.594q-.221.518-.486,1.023l-1.489-.365c.191-.333.368-.683.521-1.025Z" transform="translate(-800.833 -812.048)" fill="#00587b"/>
    <path id="Path_428" data-name="Path 428" d="M825.3,837.11c-.188.325-.391.643-.6.956l-1.437-.568a11.282,11.282,0,0,0,.631-.941Z" transform="translate(-798.525 -815.835)" fill="#00587b"/>
    <path id="Path_429" data-name="Path 429" d="M821.613,842.048c-.185.252-.379.5-.582.741-.04.049-.081.1-.125.145l-1.387-.738c.269-.284.516-.577.747-.869Z" transform="translate(-795.869 -819.224)" fill="#00587b"/>
    <path id="Path_430" data-name="Path 430" d="M817.556,846.5c-.269.289-.544.568-.831.831l-1.257-.956c.148-.121.293-.26.432-.391s.269-.252.4-.388Z" transform="translate(-792.991 -822.257)" fill="#00587b"/>
    <path id="Path_431" data-name="Path 431" d="M823.162,779.687l-1.254,1.153c-.229-.286-.472-.565-.73-.831l1.266-1.161C822.7,779.116,822.936,779.4,823.162,779.687Z" transform="translate(-797.047 -774.839)" fill="#00587b"/>
    <path id="Path_432" data-name="Path 432" d="M827.462,785.8l-1.373.976c-.174-.324-.365-.64-.57-.947l1.375-.979C827.1,785.154,827.285,785.47,827.462,785.8Z" transform="translate(-800.131 -779.101)" fill="#00587b"/>
    <path id="Path_433" data-name="Path 433" d="M830.717,792.56l-1.431.765a9.05,9.05,0,0,0-.429-1.023l1.454-.785C830.462,791.856,830.6,792.2,830.717,792.56Z" transform="translate(-802.503 -783.839)" fill="#00587b"/>
    <path id="Path_434" data-name="Path 434" d="M832.947,799.727l-1.448.559c-.07-.371-.156-.727-.26-1.086l1.471-.573C832.8,798.989,832.883,799.354,832.947,799.727Z" transform="translate(-804.194 -788.89)" fill="#00587b"/>
    <path id="Path_435" data-name="Path 435" d="M812.988,850.833c-.287.243-.576.478-.877.7L811,850.483a9.019,9.019,0,0,0,.906-.666Z" transform="translate(-789.815 -825.255)" fill="#00587b"/>
    <path id="Path_436" data-name="Path 436" d="M808.4,854.077c-.307.211-.623.411-.941.6l-.993-1.2a9.437,9.437,0,0,0,.964-.571Z" transform="translate(-786.598 -827.45)" fill="#00587b"/>
    <path id="Path_437" data-name="Path 437" d="M803.6,856.808c-.33.179-.666.347-1.008.5l-.849-1.341a10.964,10.964,0,0,0,1.022-.458Z" transform="translate(-783.244 -829.297)" fill="#00587b"/>
    <path id="Path_438" data-name="Path 438" d="M798.667,858.963c-.342.139-.689.266-1.04.382l-.689-1.465a10.3,10.3,0,0,0,1.057-.353Z" transform="translate(-779.827 -830.732)" fill="#00587b"/>
    <path id="Path_439" data-name="Path 439" d="M793.638,860.592c-.356.1-.719.194-1.081.272l-.51-1.573c.362-.064.727-.142,1.089-.234Z" transform="translate(-776.354 -831.818)" fill="#00587b"/>
    <path id="Path_440" data-name="Path 440" d="M788.591,861.677c-.2.034-.394.067-.59.093-.168.023-.336.043-.5.058l-.319-1.651c.368-.023.739-.064,1.1-.11Z" transform="translate(-772.894 -832.536)" fill="#00587b"/>
    <path id="Path_441" data-name="Path 441" d="M783.494,862.165q-.556.035-1.1.026l-.113-1.715a7.369,7.369,0,0,0,1.1.009Z" transform="translate(-769.413 -832.827)" fill="#00587b"/>
    <path id="Path_442" data-name="Path 442" d="M778.314,860.167l-.11,1.712q-.547-.026-1.086-.1l.1-1.726A10.385,10.385,0,0,0,778.314,860.167Z" transform="translate(-765.748 -832.529)" fill="#00587b"/>
    <path id="Path_443" data-name="Path 443" d="M773.033,859.309l-.316,1.7c-.368-.061-.73-.136-1.089-.226l.318-1.709c.09.023.179.047.269.067.017,0,.032.009.049.011A7.752,7.752,0,0,0,773.033,859.309Z" transform="translate(-761.848 -831.833)" fill="#00587b"/>
    <path id="Path_444" data-name="Path 444" d="M767.956,857.977l-.524,1.648c-.356-.1-.709-.226-1.055-.359l.527-1.639C767.247,857.76,767.6,857.876,767.956,857.977Z" transform="translate(-758.118 -830.803)" fill="#00587b"/>
    <path id="Path_445" data-name="Path 445" d="M763.105,856.109l-.718,1.558q-.508-.222-1-.487l.712-1.544A10.786,10.786,0,0,0,763.105,856.109Z" transform="translate(-754.573 -829.389)" fill="#00587b"/>
    <path id="Path_446" data-name="Path 446" d="M758.545,853.731l-.9,1.434c-.316-.188-.626-.391-.927-.606l.886-1.422A10.906,10.906,0,0,0,758.545,853.731Z" transform="translate(-751.256 -827.613)" fill="#00587b"/>
    <path id="Path_447" data-name="Path 447" d="M754.371,850.895l-1.054,1.292c-.128-.1-.252-.2-.376-.3-.162-.134-.318-.272-.472-.411l1.046-1.274A10.8,10.8,0,0,0,754.371,850.895Z" transform="translate(-748.237 -825.525)" fill="#00587b"/>
    <path id="Path_448" data-name="Path 448" d="M750.628,847.6l-1.187,1.13c-.264-.261-.516-.533-.753-.814l1.17-1.112c.2.229.408.449.628.663C750.533,847.517,750.579,847.56,750.628,847.6Z" transform="translate(-745.551 -823.116)" fill="#00587b"/>
    <path id="Path_449" data-name="Path 449" d="M747.344,843.888l-1.295.953c-.229-.292-.446-.594-.652-.906l1.269-.947C746.875,843.3,747.1,843.6,747.344,843.888Z" transform="translate(-743.214 -820.403)" fill="#00587b"/>
    <path id="Path_450" data-name="Path 450" d="M744.618,839.871l-1.37.77c-.191-.316-.368-.637-.53-.97l1.341-.764C744.23,839.237,744.415,839.559,744.618,839.871Z" transform="translate(-741.31 -817.504)" fill="#00587b"/>
    <path id="Path_451" data-name="Path 451" d="M742.444,835.579l-1.425.585c-.151-.339-.287-.684-.411-1.034l1.4-.573A10.26,10.26,0,0,0,742.444,835.579Z" transform="translate(-739.812 -814.414)" fill="#00587b"/>
    <path id="Path_452" data-name="Path 452" d="M740.836,831.025l-1.448.391c-.11-.351-.209-.707-.29-1.072l1.425-.388Q740.653,830.5,740.836,831.025Z" transform="translate(-738.739 -811.146)" fill="#00587b"/>
    <path id="Path_453" data-name="Path 453" d="M739.813,826.335l-1.46.2c-.067-.359-.125-.724-.165-1.092l1.436-.208C739.671,825.608,739.734,825.975,739.813,826.335Z" transform="translate(-738.092 -807.793)" fill="#00587b"/>
    <path id="Path_454" data-name="Path 454" d="M739.359,821.536l-1.452.017c-.014-.18-.026-.362-.035-.545s-.014-.374-.014-.559l1.433-.023C739.3,820.8,739.318,821.171,739.359,821.536Z" transform="translate(-737.858 -804.377)" fill="#00587b"/>
    <path id="Path_455" data-name="Path 455" d="M739.351,815.184c-.023.249-.038.5-.047.75-.006.122-.009.246-.006.368l-1.431-.157c.009-.373.032-.747.067-1.118Z" transform="translate(-737.865 -800.54)" fill="#00587b"/>
    <path id="Path_456" data-name="Path 456" d="M739.849,809.916c-.072.362-.127.724-.168,1.092l-1.393-.327q.069-.552.182-1.1Z" transform="translate(-738.164 -796.669)" fill="#00587b"/>
    <path id="Path_457" data-name="Path 457" d="M740.91,804.708c-.11.353-.206.712-.281,1.074l-1.34-.5q.126-.543.295-1.077Z" transform="translate(-738.875 -792.854)" fill="#00587b"/>
    <path id="Path_458" data-name="Path 458" d="M742.533,799.6c-.147.344-.281.692-.4,1.045l-1.268-.675c.122-.348.255-.692.4-1.031Z" transform="translate(-739.996 -789.11)" fill="#00587b"/>
    <path id="Path_459" data-name="Path 459" d="M744.734,794.592q-.27.487-.5.993l-1.184-.831c.156-.333.324-.663.507-.987Z" transform="translate(-741.545 -785.438)" fill="#00587b"/>
    <path id="Path_460" data-name="Path 460" d="M747.489,789.776c-.214.31-.417.623-.605.944l-1.086-.985c.191-.318.394-.631.611-.938Z" transform="translate(-743.498 -781.907)" fill="#00587b"/>
    <path id="Path_461" data-name="Path 461" d="M750.832,785.194c-.246.281-.481.573-.7.872l-.973-1.129c.168-.223.342-.443.524-.661.058-.069.119-.139.18-.208Z" transform="translate(-745.885 -778.547)" fill="#00587b"/>
    <path id="Path_462" data-name="Path 462" d="M754.745,780.882c-.177.162-.348.33-.516.5-.1.1-.188.2-.281.3l-.84-1.271c.258-.278.522-.544.8-.8Z" transform="translate(-748.691 -775.386)" fill="#00587b"/>
    <path id="Path_463" data-name="Path 463" d="M759.253,776.927c-.3.226-.6.464-.884.715l-.692-1.4c.287-.249.579-.484.88-.707Z" transform="translate(-751.938 -772.487)" fill="#00587b"/>
    <path id="Path_464" data-name="Path 464" d="M764.309,773.44q-.491.287-.959.608l-.533-1.5c.316-.217.64-.42.97-.608Z" transform="translate(-755.589 -769.93)" fill="#00587b"/>
    <path id="Path_465" data-name="Path 465" d="M769.971,770.558c-.15.064-.3.13-.449.2-.194.09-.385.186-.576.284l-.348-1.593c.136-.072.273-.139.412-.206.035-.018.069-.032.1-.049q.257-.113.522-.217Z" transform="translate(-759.695 -767.827)" fill="#00587b"/>
    <path id="Path_466" data-name="Path 466" d="M776.183,768.406c-.365.1-.727.22-1.08.354l-.145-1.642c.356-.119.715-.237,1.08-.33Z" transform="translate(-764.213 -766.272)" fill="#00587b"/>
    <path id="Path_467" data-name="Path 467" d="M782.757,765.427l-.064,1.633c-.376.052-.747.122-1.115.2l.058-1.648A11.075,11.075,0,0,1,782.757,765.427Z" transform="translate(-768.916 -765.305)" fill="#00587b"/>
    <path id="Path_468" data-name="Path 468" d="M789.4,765.007l-.261,1.625c-.281,0-.565.009-.849.026-.1.006-.194.014-.292.021l.272-1.642C788.647,765.007,789.024,765.007,789.4,765.007Z" transform="translate(-773.477 -765.007)" fill="#00587b"/>
    <path id="Path_469" data-name="Path 469" d="M796.284,765.276l-.475,1.613c-.367-.058-.741-.1-1.121-.124l.481-1.607C795.536,765.18,795.91,765.226,796.284,765.276Z" transform="translate(-778.229 -765.113)" fill="#00587b"/>
    <path id="Path_470" data-name="Path 470" d="M803.185,766.6l-.7,1.573c-.35-.119-.709-.217-1.072-.3l.689-1.558C802.478,766.4,802.828,766.5,803.185,766.6Z" transform="translate(-783.01 -765.938)" fill="#00587b"/>
    <path id="Path_471" data-name="Path 471" d="M809.862,769.093l-.006.011-.892,1.495c-.324-.174-.657-.333-1-.475l.9-1.5.176.07A6.69,6.69,0,0,1,809.862,769.093Z" transform="translate(-787.663 -767.578)" fill="#00587b"/>
    <path id="Path_472" data-name="Path 472" d="M816.357,773.152l-1.06,1.361c-.287-.229-.585-.446-.889-.646l1.069-1.37C815.778,772.7,816.073,772.917,816.357,773.152Z" transform="translate(-792.238 -770.328)" fill="#00587b"/>
  </g>
  <g id="Group_27" data-name="Group 27" transform="translate(20.926 20.606)">
    <path id="Path_473" data-name="Path 473" d="M828.5,807.838l-.727.2c-.012-.388-.038-.759-.081-1.132l.739-.186C828.467,807.085,828.49,807.461,828.5,807.838Z" transform="translate(-803.65 -796.809)" fill="#00587b"/>
    <path id="Path_474" data-name="Path 474" d="M828.452,813.087c-.015.379-.046.759-.1,1.132l-.718.1c.044-.38.078-.765.093-1.144Z" transform="translate(-803.614 -801.334)" fill="#00587b"/>
    <path id="Path_475" data-name="Path 475" d="M827.388,819.287c-.07.374-.153.744-.252,1.109l-.718,0a9.523,9.523,0,0,0,.264-1.1Z" transform="translate(-802.748 -805.739)" fill="#00587b"/>
    <path id="Path_476" data-name="Path 476" d="M825.608,824.964c-.119.365-.252.727-.4,1.083l-.686-.078c.147-.365.284-.724.4-1.092Z" transform="translate(-801.399 -809.71)" fill="#00587b"/>
    <path id="Path_477" data-name="Path 477" d="M823.178,830.289q-.243.517-.53,1.016l-.661-.171c.194-.333.371-.666.539-1.008Z" transform="translate(-799.601 -813.439)" fill="#00587b"/>
    <path id="Path_478" data-name="Path 478" d="M820.187,835.14c-.2.322-.42.64-.649.947l-.64-.249a9.486,9.486,0,0,0,.663-.941Z" transform="translate(-797.405 -816.828)" fill="#00587b"/>
    <path id="Path_479" data-name="Path 479" d="M816.825,839.479c-.235.3-.484.585-.747.866l-.6-.322c.269-.281.521-.568.762-.866Z" transform="translate(-794.976 -819.854)" fill="#00587b"/>
    <path id="Path_480" data-name="Path 480" d="M813.107,843.355c-.27.272-.548.533-.834.779l-.565-.4c.212-.182.423-.365.634-.565l.22-.205Z" transform="translate(-792.298 -822.561)" fill="#00587b"/>
    <path id="Path_481" data-name="Path 481" d="M818.82,784.961l-.672.62c-.113-.139-.241-.278-.368-.417s-.255-.278-.382-.4l.695-.637A10.379,10.379,0,0,1,818.82,784.961Z" transform="translate(-796.34 -780.762)" fill="#00587b"/>
    <path id="Path_482" data-name="Path 482" d="M822.744,790.274l-.71.5a7.076,7.076,0,0,0-.6-.927l.739-.521C822.382,789.634,822.57,789.95,822.744,790.274Z" transform="translate(-799.21 -784.456)" fill="#00587b"/>
    <path id="Path_483" data-name="Path 483" d="M825.739,796.155l-.716.388a7.644,7.644,0,0,0-.426-1.037l.744-.4C825.49,795.449,825.623,795.8,825.739,796.155Z" transform="translate(-801.455 -788.561)" fill="#00587b"/>
    <path id="Path_484" data-name="Path 484" d="M827.73,802.453l-.692.267c-.069-.371-.148-.736-.249-1.092l.724-.281C827.6,801.709,827.675,802.08,827.73,802.453Z" transform="translate(-803.011 -792.995)" fill="#00587b"/>
    <path id="Path_485" data-name="Path 485" d="M809.008,847.151c-.3.238-.6.46-.906.672l-.443-.414c.316-.2.631-.414.938-.651Z" transform="translate(-789.421 -825.253)" fill="#00587b"/>
    <path id="Path_486" data-name="Path 486" d="M804.925,849.939c-.319.2-.64.4-.97.573l-.4-.481c.327-.165.657-.348.988-.545Z" transform="translate(-786.508 -827.192)" fill="#00587b"/>
    <path id="Path_487" data-name="Path 487" d="M800.651,852.221c-.336.171-.678.327-1.023.469l-.35-.553a10.711,10.711,0,0,0,1.04-.44Z" transform="translate(-783.468 -828.762)" fill="#00587b"/>
    <path id="Path_488" data-name="Path 488" d="M796.319,854.028c-.345.133-.7.252-1.049.354l-.292-.614a10.232,10.232,0,0,0,1.063-.33Z" transform="translate(-780.413 -829.998)" fill="#00587b"/>
    <path id="Path_489" data-name="Path 489" d="M791.911,855.363q-.539.148-1.086.246l-.217-.672a10.888,10.888,0,0,0,1.092-.22Z" transform="translate(-777.309 -830.908)" fill="#00587b"/>
    <path id="Path_490" data-name="Path 490" d="M787.523,856.232c-.365.061-.73.1-1.1.133l-.136-.718c.368-.023.73-.055,1.1-.11Z" transform="translate(-774.241 -831.49)" fill="#00587b"/>
    <path id="Path_491" data-name="Path 491" d="M783.114,856.593q-.556.035-1.1.017l-.052-.773c.368.023.735.032,1.1.023Z" transform="translate(-771.164 -831.703)" fill="#00587b"/>
    <path id="Path_492" data-name="Path 492" d="M778.715,855.49l-.049.77c-.37-.018-.739-.052-1.1-.1l.046-.8A9.822,9.822,0,0,0,778.715,855.49Z" transform="translate(-768.045 -831.362)" fill="#00587b"/>
    <path id="Path_493" data-name="Path 493" d="M774.3,854.632l-.151.794c-.367-.055-.73-.133-1.083-.223l.154-.825A7.315,7.315,0,0,0,774.3,854.632Z" transform="translate(-764.849 -830.666)" fill="#00587b"/>
    <path id="Path_494" data-name="Path 494" d="M770.075,853.391l-.252.791a10.963,10.963,0,0,1-1.054-.35l.257-.814C769.365,853.156,769.719,853.28,770.075,853.391Z" transform="translate(-761.795 -829.7)" fill="#00587b"/>
    <path id="Path_495" data-name="Path 495" d="M766.026,851.688l-.365.779a10.335,10.335,0,0,1-.994-.469l.362-.791A10.494,10.494,0,0,0,766.026,851.688Z" transform="translate(-758.881 -828.414)" fill="#00587b"/>
    <path id="Path_496" data-name="Path 496" d="M762.191,849.519l-.469.747a10.681,10.681,0,0,1-.932-.588l.469-.762A7.291,7.291,0,0,0,762.191,849.519Z" transform="translate(-756.126 -826.787)" fill="#00587b"/>
    <path id="Path_497" data-name="Path 497" d="M758.674,847.02l-.562.69a10.852,10.852,0,0,1-.854-.7l.562-.7A9.082,9.082,0,0,0,758.674,847.02Z" transform="translate(-753.618 -824.94)" fill="#00587b"/>
    <path id="Path_498" data-name="Path 498" d="M755.5,844.126l-.652.626c-.049-.049-.1-.1-.151-.145-.217-.212-.423-.429-.62-.655l.657-.626a3.138,3.138,0,0,0,.231.269C755.138,843.782,755.318,843.964,755.5,844.126Z" transform="translate(-751.358 -822.816)" fill="#00587b"/>
    <path id="Path_499" data-name="Path 499" d="M752.7,840.916l-.727.536a10.028,10.028,0,0,1-.675-.886l.733-.539A9.094,9.094,0,0,0,752.7,840.916Z" transform="translate(-749.384 -820.472)" fill="#00587b"/>
    <path id="Path_500" data-name="Path 500" d="M750.353,837.4l-.8.446A10.762,10.762,0,0,1,749,836.9l.793-.449A7.148,7.148,0,0,0,750.353,837.4Z" transform="translate(-747.75 -817.929)" fill="#00587b"/>
    <path id="Path_501" data-name="Path 501" d="M748.448,833.659l-.843.344a10.657,10.657,0,0,1-.437-1.022l.837-.344A8.977,8.977,0,0,0,748.448,833.659Z" transform="translate(-746.45 -815.222)" fill="#00587b"/>
    <path id="Path_502" data-name="Path 502" d="M747.026,829.744l-.875.237c-.119-.348-.226-.7-.313-1.066l.863-.229A10.068,10.068,0,0,0,747.026,829.744Z" transform="translate(-745.505 -812.416)" fill="#00587b"/>
    <path id="Path_503" data-name="Path 503" d="M746.1,825.659l-.892.127a11.03,11.03,0,0,1-.191-1.1l.877-.122A8.564,8.564,0,0,0,746.1,825.659Z" transform="translate(-744.923 -809.49)" fill="#00587b"/>
    <path id="Path_504" data-name="Path 504" d="M745.657,821.487l-.892.011c-.038-.365-.061-.732-.067-1.106l.866-.006A8.064,8.064,0,0,0,745.657,821.487Z" transform="translate(-744.695 -806.52)" fill="#00587b"/>
    <path id="Path_505" data-name="Path 505" d="M745.592,815.89a11.019,11.019,0,0,0-.038,1.118l-.866-.093c0-.136,0-.278.006-.417.009-.234.023-.466.047-.7Z" transform="translate(-744.688 -803.26)" fill="#00587b"/>
    <path id="Path_506" data-name="Path 506" d="M745.94,811.354a10.617,10.617,0,0,0-.156,1.106l-.846-.2c.04-.368.1-.735.168-1.1Z" transform="translate(-744.866 -799.963)" fill="#00587b"/>
    <path id="Path_507" data-name="Path 507" d="M746.784,806.9a10.72,10.72,0,0,0-.275,1.078l-.811-.31c.075-.362.168-.718.275-1.075Z" transform="translate(-745.405 -796.724)" fill="#00587b"/>
    <path id="Path_508" data-name="Path 508" d="M748.078,802.486c-.142.356-.266.7-.374,1.051l-.776-.405c.116-.353.246-.7.391-1.046Z" transform="translate(-746.279 -793.52)" fill="#00587b"/>
    <path id="Path_509" data-name="Path 509" d="M749.9,798.172c-.18.327-.336.666-.49,1.005l-.715-.5c.151-.339.319-.672.5-1Z" transform="translate(-747.537 -790.387)" fill="#00587b"/>
    <path id="Path_510" data-name="Path 510" d="M752.2,794.015c-.217.319-.412.632-.6.953l-.654-.585c.191-.324.394-.643.611-.956Z" transform="translate(-749.135 -787.368)" fill="#00587b"/>
    <path id="Path_511" data-name="Path 511" d="M755.041,790.029c-.246.29-.487.585-.7.889l-.579-.672c.223-.3.46-.6.707-.889Z" transform="translate(-751.131 -784.477)" fill="#00587b"/>
    <path id="Path_512" data-name="Path 512" d="M758.361,786.32c-.269.263-.533.533-.779.805l-.5-.747c.116-.13.237-.258.359-.385.142-.145.286-.286.431-.426Z" transform="translate(-753.489 -781.785)" fill="#00587b"/>
    <path id="Path_513" data-name="Path 513" d="M762.224,782.864c-.3.231-.591.469-.878.73l-.408-.825q.426-.378.875-.721Z" transform="translate(-756.232 -779.284)" fill="#00587b"/>
    <path id="Path_514" data-name="Path 514" d="M766.566,779.831a7.767,7.767,0,0,0-.958.625l-.318-.906q.469-.33.961-.623Z" transform="translate(-759.323 -777.068)" fill="#00587b"/>
    <path id="Path_515" data-name="Path 515" d="M771.432,777.26c-.344.151-.686.316-1.025.5l-.208-.959c.336-.179.678-.344,1.025-.5Z" transform="translate(-762.81 -775.206)" fill="#00587b"/>
    <path id="Path_516" data-name="Path 516" d="M776.794,775.285c-.365.11-.724.229-1.074.371l-.081-1c.354-.134.71-.255,1.072-.356Z" transform="translate(-766.674 -773.779)" fill="#00587b"/>
    <path id="Path_517" data-name="Path 517" d="M782.506,772.977,782.472,774a8.524,8.524,0,0,0-1.124.22l.043-1.025C781.76,773.1,782.133,773.032,782.506,772.977Z" transform="translate(-770.731 -772.841)" fill="#00587b"/>
    <path id="Path_518" data-name="Path 518" d="M788.408,772.507l-.162,1.01c-.368.009-.753.032-1.138.069l.162-1.022c.139-.014.278-.026.42-.034C787.933,772.516,788.171,772.507,788.408,772.507Z" transform="translate(-774.823 -772.507)" fill="#00587b"/>
    <path id="Path_519" data-name="Path 519" d="M794.528,772.69l-.292,1a10.089,10.089,0,0,0-1.118-.1l.3-1.011C793.793,772.6,794.164,772.635,794.528,772.69Z" transform="translate(-779.092 -772.557)" fill="#00587b"/>
    <path id="Path_520" data-name="Path 520" d="M800.681,773.759l-.426.956a8.37,8.37,0,0,0-1.078-.272l.429-.976A10.338,10.338,0,0,1,800.681,773.759Z" transform="translate(-783.397 -773.189)" fill="#00587b"/>
    <path id="Path_521" data-name="Path 521" d="M806.673,775.909l-.527.88a7.691,7.691,0,0,0-1.008-.458l.536-.895A9.755,9.755,0,0,1,806.673,775.909Z" transform="translate(-787.631 -774.588)" fill="#00587b"/>
    <g id="Group_26" data-name="Group 26" transform="translate(19.236 1.796)">
      <path id="Path_522" data-name="Path 522" d="M812.617,779.356l-.6.773a9.229,9.229,0,0,0-.906-.625l.617-.8A10.711,10.711,0,0,1,812.617,779.356Z" transform="translate(-811.108 -778.707)" fill="#00587b"/>
    </g>
  </g>
  <g id="Group_28" data-name="Group 28">
    <ellipse id="Ellipse_11" data-name="Ellipse 11" cx="0.887" cy="0.887" rx="0.887" ry="0.887" transform="translate(63.534 42.179)" fill="#00587b"/>
    <ellipse id="Ellipse_12" data-name="Ellipse 12" cx="0.881" cy="0.881" rx="0.881" ry="0.881" transform="translate(56.03 10.771)" fill="#00587b"/>
    <ellipse id="Ellipse_13" data-name="Ellipse 13" cx="0.881" cy="0.881" rx="0.881" ry="0.881" transform="translate(23.302)" fill="#00587b"/>
    <ellipse id="Ellipse_14" data-name="Ellipse 14" cx="0.881" cy="0.881" rx="0.881" ry="0.881" transform="translate(9.194 54.444)" fill="#00587b"/>
    <ellipse id="Ellipse_15" data-name="Ellipse 15" cx="0.881" cy="0.881" rx="0.881" ry="0.881" transform="translate(0 22.378)" fill="#00587b"/>
    <ellipse id="Ellipse_16" data-name="Ellipse 16" cx="0.881" cy="0.881" rx="0.881" ry="0.881" transform="translate(40.669 64.758)" fill="#00587b"/>
  </g>
  <g id="Group_30" data-name="Group 30" transform="translate(40.324 19.552)">
    <g id="Group_29" data-name="Group 29">
      <path id="Path_523" data-name="Path 523" d="M811.668,768.867c.275.124.55.263.817.408l.006-.012A6.8,6.8,0,0,0,811.668,768.867Z" transform="translate(-811.668 -768.867)" fill="#00587b"/>
    </g>
  </g>
</svg>
